<?xml version="1.0"?>
<svg xmlns="http://www.w3.org/2000/svg" id="Capa_1" enable-background="new 0 0 512 512" height="512px" viewBox="0 0 512 512" width="512px"><path d="m119.659 111.681h25.332v225.319h-25.332z" fill="#null"/><path d="m140.222 503.209c-5.122 1.735-10.672 1.735-15.794 0-36.36-12.314-61.725-45.316-64.268-83.621l-5.479-82.534c-.537-8.083 5.875-14.935 13.976-14.935h127.335c8.101 0 14.513 6.851 13.976 14.935l-5.479 82.534c-2.543 38.305-27.907 71.307-64.267 83.621z" fill="#null"/><path d="m195.992 322.119h-38.113c8.101 0 14.512 6.851 13.976 14.934l-5.479 82.534c-2.274 34.248-22.799 64.244-53.108 79.018 3.59 1.75 7.309 3.299 11.159 4.603 5.122 1.734 10.672 1.734 15.794 0 36.36-12.314 61.725-45.316 64.267-83.621l5.479-82.534c.538-8.083-5.874-14.934-13.975-14.934z" fill="#null"/><path d="m169.959 7.5h-75.269c-9.709 0-17.527 7.967-17.344 17.674l.559 29.677c.597 31.714 19.804 48.226 26.451 59.513 13.716 19.175 42.222 19.175 55.938 0 7.006-11.898 25.854-27.839 26.451-59.513l.559-29.677c.182-9.707-7.636-17.674-17.345-17.674zm-9.42 46.857c-.406 21.554-13.568 31.691-21.563 44.758-2.129 2.976-5.081 3.421-6.651 3.421s-4.523-.444-6.651-3.42c-8.089-13.22-21.156-23.176-21.563-44.758l-.389-20.647h57.206z" fill="#null"/><path d="m169.959 7.5h-38.113c9.709 0 17.527 7.967 17.344 17.674l-.161 8.536h11.898l-.389 20.647c-.185 9.819-3.303 19.231-9.016 27.219l-12.546 17.539c-2.129 2.976-5.081 3.421-6.651 3.421-.434 0-.977-.037-1.576-.149l-8.568 11.978c-2.529 3.536-5.563 6.414-8.913 8.646 14.815 9.872 35.838 6.994 47.026-8.646l12.546-17.54c8.772-12.263 13.62-26.898 13.904-41.974l.559-29.676c.183-9.708-7.635-17.675-17.344-17.675z" fill="#null"/><path d="m110.788 293.736v21.231c0 15.589 5.119 30.747 14.571 43.144l1.751 2.297c2.624 3.442 7.805 3.442 10.43 0l1.751-2.297c9.452-12.397 14.571-27.555 14.571-43.144v-21.231c0-4.087-3.313-7.4-7.4-7.4h-28.274c-4.087 0-7.4 3.313-7.4 7.4z" fill="#null"/><path d="m332.924 466.165v-72.248c0-8.135 6.595-14.729 14.73-14.729 8.135 0 14.729 6.595 14.729 14.729v72.204c0 10.706 2.964 21.202 8.564 30.326l3.207 5.225c2.154 3.51 7.256 3.505 9.403-.01l3.209-5.253c5.56-9.101 8.501-19.559 8.501-30.224v-71.853c0-7.931 6.095-14.756 14.018-15.129 8.459-.398 15.441 6.342 15.441 14.713v72.392c0 10.588 2.899 20.973 8.383 30.029l3.176 5.244c2.142 3.537 7.272 3.545 9.424.013l3.173-5.207c5.538-9.088 8.467-19.525 8.467-30.168v-82.657c0-31.253-25.336-56.589-56.589-56.589h-43.794c-31.369 0-56.753 25.517-56.588 56.886l.438 83.179c.053 10.125 2.757 20.059 7.842 28.814l3.192 5.495c2.097 3.61 7.291 3.67 9.47.108l3.082-5.037c5.574-9.104 8.522-19.575 8.522-30.253z" fill="#null"/><path d="m400.762 326.976h-37.84c30.954 0 56.087 24.857 56.566 55.697 3.198 2.702 5.24 6.73 5.24 11.244v72.392c0 10.587 2.899 20.973 8.383 30.029l3.176 5.244c2.142 3.538 7.272 3.545 9.424.013l3.173-5.206c5.538-9.088 8.467-19.525 8.467-30.168v-82.657c-.001-31.252-25.336-56.588-56.589-56.588z" fill="#null"/><path d="m366.049 111.681h25.332v225.319h-25.332z" fill="#null"/><path d="m416.35 7.5h-75.269c-9.709 0-17.527 7.967-17.344 17.674l.559 29.677c.597 31.714 19.804 48.226 26.451 59.513 13.716 19.175 42.222 19.175 55.938 0 7.006-11.898 25.854-27.839 26.451-59.513l.559-29.677c.182-9.707-7.637-17.674-17.345-17.674zm-9.421 46.857c-.406 21.554-13.568 31.691-21.563 44.758-2.129 2.976-5.081 3.421-6.651 3.421s-4.523-.444-6.651-3.42c-8.089-13.22-21.156-23.176-21.563-44.758l-.389-20.647h57.206z" fill="#null"/><path d="m357.178 293.736v21.231c0 15.589 5.119 30.747 14.571 43.144l1.751 2.297c2.624 3.442 7.805 3.442 10.43 0l1.751-2.297c9.452-12.397 14.571-27.555 14.571-43.144v-21.231c0-4.087-3.313-7.4-7.4-7.4h-28.274c-4.087 0-7.4 3.313-7.4 7.4z" fill="#null"/><path d="m416.35 7.5h-38.113c9.709 0 17.527 7.967 17.344 17.674l-.161 8.536h11.898l-.389 20.647c-.185 9.819-3.303 19.231-9.016 27.219l-12.546 17.539c-2.129 2.976-5.081 3.421-6.651 3.421-.434 0-.977-.037-1.576-.149l-8.568 11.978c-2.529 3.536-5.563 6.414-8.913 8.646 14.815 9.872 35.838 6.994 47.026-8.646l12.547-17.54c8.772-12.263 13.62-26.898 13.904-41.974l.559-29.676c.182-9.708-7.637-17.675-17.345-17.675z" fill="#null"/><path d="m132.325 110.035c10.467 0 13.152-7.726 19.503-16.115 7.435-9.824 15.862-20.958 16.21-39.422l.389-20.647c.079-4.189-3.298-7.641-7.499-7.641h-57.206c-4.208 0-7.578 3.458-7.499 7.641l.389 20.647c.348 18.462 8.738 29.544 16.14 39.321 6.368 8.411 9.061 16.216 19.573 16.216zm-20.716-55.819-.245-13.006h41.921l-.245 13.006c-.256 13.584-6.53 21.874-13.174 30.652-2.408 3.182-4.896 6.469-7.094 10.017-.089.098-.197.15-.448.15s-.358-.052-.447-.149c-2.23-3.601-4.738-6.914-7.166-10.121-6.893-9.105-12.846-16.968-13.102-30.549z" fill="#null"/><path d="m414.428 54.498.389-20.647c.079-4.189-3.298-7.641-7.499-7.641h-57.206c-4.208 0-7.578 3.458-7.499 7.641l.389 20.647c.347 18.462 8.737 29.544 16.14 39.321 6.369 8.412 9.063 16.216 19.573 16.216 10.465 0 13.148-7.72 19.503-16.116 7.435-9.823 15.862-20.957 16.21-39.421zm-28.171 30.369c-2.409 3.182-4.897 6.47-7.094 10.017-.187.205-.708.205-.895 0-2.23-3.601-4.738-6.913-7.166-10.12-6.894-9.104-12.846-16.967-13.102-30.548l-.245-13.006h41.921l-.245 13.006c-.257 13.584-6.531 21.874-13.174 30.651z" fill="#null"/><path d="m195.992 314.619h-34.631v-20.883c0-6.069-3.653-11.294-8.871-13.614v-149.005c11.052-6.073 14.472-13.732 19.995-21.041 8.462-11.199 21.249-28.124 21.757-55.084l.559-29.676c.264-13.917-10.924-25.316-24.842-25.316h-75.269c-13.919 0-25.105 11.4-24.843 25.315l.559 29.676c.511 27.115 13.46 44.198 22.028 55.502 5.212 6.876 8.739 14.587 19.724 20.623v149.005c-5.218 2.32-8.871 7.545-8.871 13.614v20.883h-34.63c-12.424 0-22.283 10.533-21.459 22.931l1.915 28.854c.665 10.017 15.625 8.92 14.967-.993l-1.915-28.854c-.249-3.744 2.711-6.937 6.492-6.937h36.04c2.282 11.942 7.298 23.334 14.698 33.04.907.835 4.269 7.832 12.93 7.831 8.646 0 11.997-6.972 12.929-7.831 7.4-9.706 12.416-21.098 14.698-33.04h36.04c3.753 0 6.743 3.165 6.492 6.938l-5.479 82.534c-2.351 35.404-25.584 65.633-59.189 77.014-3.541 1.199-7.442 1.199-10.983 0-33.606-11.381-56.839-41.611-59.19-77.014l-1.24-18.69c-.656-9.895-15.625-8.915-14.967.993l1.24 18.69c2.753 41.478 29.973 76.895 69.346 90.228 6.644 2.25 13.961 2.25 20.606 0 39.372-13.333 66.592-48.75 69.345-90.228l5.479-82.534c.824-12.396-9.034-22.931-21.46-22.931zm-91.603-213.186c-7.836-10.338-18.567-24.494-18.986-46.723l-.559-29.676c-.103-5.516 4.33-10.034 9.846-10.034h75.269c5.516 0 9.949 4.518 9.845 10.033l-.559 29.676c-.416 22.088-10.57 35.526-18.727 46.323-2.427 3.212-4.723 6.251-6.499 9.209-5.117 6.997-13.007 11.004-21.694 11.004-8.688 0-16.577-4.006-21.695-11.005-1.671-2.778-3.796-5.581-6.241-8.807zm27.936 34.813c1.745 0 3.468-.107 5.165-.311v142.901h-10.331v-142.901c1.697.204 3.421.311 5.166.311zm14.036 178.721c0 13.864-4.629 27.572-13.035 38.597l-1.002 1.314-1.001-1.314c-8.406-11.025-13.035-24.733-13.035-38.597v-21.131h28.073z" fill="#null"/><path d="m407.581 319.843c.102-1.622.171-3.248.171-4.876v-21.231c0-6.069-3.653-11.294-8.871-13.614v-149.005c11.056-6.075 14.482-13.744 19.996-21.042 8.462-11.199 21.248-28.123 21.756-55.083l.559-29.676c.263-13.917-10.924-25.316-24.842-25.316h-75.269c-13.92 0-25.105 11.4-24.843 25.315l.559 29.676c.511 27.114 13.46 44.197 22.028 55.501 5.201 6.86 8.74 14.588 19.725 20.624v29.686c0 4.142 3.358 7.5 7.5 7.5s7.5-3.358 7.5-7.5v-24.868c1.697.204 3.421.311 5.166.311s3.469-.106 5.166-.311v142.901h-10.331v-82.832c0-4.142-3.358-7.5-7.5-7.5s-7.5 3.358-7.5 7.5v84.118c-5.218 2.32-8.871 7.545-8.871 13.614v21.231c0 1.64.069 3.277.173 4.911-14.486 1.589-27.892 8.006-38.32 18.489-12.118 12.182-18.742 28.353-18.651 45.536l.438 83.179c.114 21.647 10.648 34.925 12.049 38.035 4.945 8.515 17.205 8.671 22.353.256 1.338-2.858 12.706-16.451 12.706-39.207v-72.248c0-3.986 3.243-7.229 7.229-7.229s7.23 3.243 7.23 7.229v72.204c0 22.701 11.495 36.532 12.879 39.475 5.09 8.293 17.133 8.264 22.196-.023 1.385-2.955 12.81-16.668 12.81-39.387v-71.853c0-4.033 3.082-7.459 6.87-7.637 4.199-.192 7.589 3.135 7.589 7.221v72.392c0 22.608 11.296 36.259 12.643 39.159 5.061 8.358 17.17 8.358 22.244.031 1.349-2.887 12.736-16.614 12.736-39.277v-82.657c-.003-33.035-25.129-60.306-57.273-63.722zm-50.561-209.602c-1.67-2.779-3.795-5.582-6.241-8.809-7.835-10.337-18.566-24.493-18.985-46.722l-.559-29.677c-.104-5.515 4.33-10.033 9.846-10.033h75.269c5.516 0 9.949 4.518 9.845 10.033l-.559 29.676c-.416 22.088-10.569 35.526-18.727 46.323-2.427 3.212-4.723 6.252-6.499 9.21-5.118 6.997-13.008 11.004-21.695 11.004-8.687-.001-16.577-4.008-21.695-11.005zm21.695 244.636-1.001-1.313c-8.406-11.026-13.035-24.733-13.035-38.597v-21.131h28.073v21.131c0 13.864-4.629 27.571-13.034 38.597zm71.135 111.345c0 9.268-2.549 18.35-7.372 26.265l-1.471 2.413-1.481-2.446c-4.775-7.885-7.299-16.926-7.299-26.145v-72.392c0-12.458-10.375-22.82-23.294-22.205-11.868.559-21.165 10.495-21.165 22.621v71.853c0 9.288-2.56 18.387-7.402 26.314l-1.517 2.484-1.509-2.46c-4.878-7.947-7.456-17.077-7.456-26.403v-72.204c0-12.258-9.972-22.229-22.23-22.229s-22.229 9.972-22.229 22.229v72.248c0 9.3-2.565 18.409-7.419 26.342l-1.342 2.194-1.518-2.613c-4.42-7.611-6.781-16.285-6.827-25.086l-.438-83.179c-.069-13.16 5.004-25.547 14.286-34.878 8.158-8.201 18.695-13.16 30.064-14.241 4.642 17.84 14.69 29.271 15.306 30.251 5.627 7.38 16.727 7.387 22.358 0 .905-1.439 10.54-11.914 15.312-30.268 24.992 2.255 44.645 23.309 44.645 48.878v82.657z" fill="#null"/></svg>
