<?xml version="1.0" encoding="UTF-8"?>
<svg id="Capa_1" data-name="Capa 1" xmlns="http://www.w3.org/2000/svg" viewBox="0 0 50 50">
  <defs>
    <style>
      .cls-1 {
        fill: none;
      }

      .cls-2 {
        fill: #729b39;
      }
    </style>
  </defs>
  <g>
    <path class="cls-2" d="M23.35,42.27l-1.05-5.09c4.17-1.72,4.49-4.72,3.98-6.98-.08-.34-.35-.58-.67-.64,.22-.98,.15-1.96-.05-2.83-.08-.34-.35-.58-.67-.64,.22-.98,.15-1.96-.05-2.83-.08-.34-.35-.58-.67-.64,.22-.98,.15-1.96-.05-2.83-.1-.44-.54-.73-.98-.63-.91,.19-1.69,.54-2.35,1-.18-1.29-1.08-2.55-3.06-3.85-.38-.25-.9-.15-1.16,.24-1.3,1.98-1.63,3.49-1.29,4.75-.74-.15-1.58-.19-2.55,.01-.45,.09-.74,.52-.65,.97,.16,.88,.49,1.81,1.08,2.62-.27,.18-.42,.51-.36,.85,.16,.88,.49,1.81,1.08,2.62-.27,.18-.43,.51-.36,.85,.16,.88,.49,1.81,1.08,2.62-.27,.18-.43,.51-.36,.85,.26,1.38,.9,2.88,2.35,3.84,.96,.63,2.27,1.03,4.06,1l1.05,5.09c.05,.23,.18,.41,.36,.53s.4,.17,.63,.12c.45-.09,.74-.53,.65-.99Zm-1.39-6.76l-.37-1.8c1.54-.64,2.55-1.44,3.19-2.32,.17,1.88-.74,3.19-2.82,4.12Zm-6.57-5.8c.94,.56,2.19,.9,3.85,.87l.37,1.8c-2.28-.03-3.63-.88-4.22-2.67Zm3.14-2.59l.37,1.79c-2.28-.03-3.63-.87-4.22-2.67,.94,.56,2.19,.9,3.85,.87Zm2.72,4.93l-.37-1.8c1.54-.64,2.55-1.44,3.19-2.32,.17,1.88-.74,3.19-2.82,4.12Zm-.71-3.47l-.37-1.8c1.54-.64,2.55-1.44,3.19-2.32,.16,1.88-.74,3.19-2.82,4.12Zm2.12-7.53c.14,1.82-.73,3.1-2.72,4.01,.05-1.51,.83-3.26,2.72-4.01Zm-4.17,1.71c-1.77-1.31-2.17-2.4-.94-4.56,1.99,1.5,2.05,2.66,.94,4.56Zm-1.8,.96c.58,.45,1.07,1.07,1.38,1.74-2.19-.05-3.49-.89-4.09-2.61,1.23-.03,2.13,.43,2.7,.88Zm-.57,9.47c.94,.56,2.19,.9,3.85,.87l.37,1.8c-2.28-.03-3.63-.88-4.22-2.67Z"/>
    <path class="cls-2" d="M16.2,7.59c-.09-.45-.53-.74-.99-.65-.45,.09-.74,.53-.65,.99l1.19,5.78c.05,.23,.18,.41,.36,.53s.4,.17,.63,.12c.45-.09,.74-.53,.65-.99l-1.19-5.78Z"/>
    <path class="cls-2" d="M20.64,16.92c.05,.23,.18,.41,.36,.53s.4,.17,.63,.12c.45-.09,.74-.53,.65-.99l-1.19-5.78c-.09-.45-.53-.74-.99-.65-.45,.09-.74,.53-.65,.99l1.19,5.78Z"/>
    <path class="cls-2" d="M12.99,12.47c-.09-.45-.53-.74-.99-.65-.45,.09-.74,.53-.65,.99l1.19,5.78c.05,.23,.18,.41,.36,.53s.4,.17,.63,.12c.45-.09,.74-.53,.65-.99l-1.19-5.78Z"/>
  </g>
  <g>
    <path class="cls-2" d="M31.2,40.99l.37-4.65c4.03-.44,5.05-2.94,5.18-5.02,.02-.31-.15-.59-.42-.72,.43-.79,.62-1.65,.67-2.45,.02-.31-.15-.59-.42-.72,.43-.79,.62-1.65,.67-2.45,.02-.31-.15-.59-.42-.72,.43-.78,.62-1.65,.67-2.45,.02-.41-.28-.76-.69-.79-.83-.07-1.59,.04-2.28,.27,.17-1.16-.29-2.47-1.67-4.09-.27-.31-.74-.35-1.06-.08-1.62,1.38-2.27,2.6-2.29,3.77-.6-.32-1.32-.56-2.2-.63-.41-.03-.76,.27-.8,.67-.08,.8-.03,1.68,.27,2.52-.28,.09-.49,.33-.52,.64-.08,.8-.03,1.68,.27,2.52-.28,.09-.49,.33-.52,.64-.08,.8-.03,1.68,.27,2.52-.28,.09-.49,.33-.52,.64-.12,1.25,.05,2.71,1.07,3.9,.67,.78,1.7,1.45,3.25,1.88l-.37,4.65c-.02,.21,.05,.4,.18,.55s.3,.24,.51,.26c.41,.03,.77-.27,.81-.69Zm.49-6.17l.13-1.64c1.49-.16,2.56-.61,3.33-1.21-.33,1.66-1.43,2.57-3.46,2.85Zm-4.21-6.64c.67,.71,1.66,1.32,3.1,1.72l-.13,1.64c-1.96-.6-2.91-1.66-2.97-3.36Zm3.35-1.45l-.13,1.64c-1.96-.6-2.91-1.66-2.97-3.35,.67,.71,1.66,1.32,3.1,1.71Zm1.11,4.92l.13-1.64c1.49-.16,2.56-.61,3.33-1.21-.33,1.66-1.43,2.57-3.46,2.85Zm.25-3.17l.13-1.64c1.49-.16,2.56-.61,3.33-1.2-.33,1.66-1.43,2.57-3.46,2.85Zm3.71-5.96c-.33,1.6-1.4,2.49-3.34,2.78,.42-1.29,1.53-2.6,3.34-2.78Zm-4.02,.43c-1.2-1.57-1.27-2.61,.33-4.17,1.34,1.79,1.1,2.8-.33,4.17Zm-1.79,.37c.39,.54,.65,1.19,.76,1.84-1.88-.6-2.79-1.64-2.87-3.27,1.07,.28,1.73,.9,2.11,1.43Zm-2.86,8.01c.67,.71,1.66,1.32,3.1,1.72l-.13,1.64c-1.96-.6-2.91-1.66-2.97-3.35Z"/>
    <path class="cls-2" d="M33.7,9.32c.03-.41-.27-.77-.69-.81-.41-.03-.77,.27-.81,.69l-.42,5.28c-.02,.21,.05,.4,.18,.55s.3,.24,.51,.26c.41,.03,.77-.27,.81-.69l.42-5.28Z"/>
    <path class="cls-2" d="M35.19,18.47c-.02,.21,.05,.4,.18,.55s.3,.24,.51,.26c.41,.03,.77-.27,.81-.69l.42-5.28c.03-.41-.27-.77-.69-.81-.41-.03-.77,.27-.81,.69l-.42,5.28Z"/>
    <path class="cls-2" d="M29.71,12.72c.03-.41-.27-.77-.69-.81-.41-.03-.77,.27-.81,.69l-.42,5.28c-.02,.21,.05,.4,.18,.55s.3,.24,.51,.26c.41,.03,.77-.27,.81-.69l.42-5.28Z"/>
  </g>
  <rect class="cls-1" x="-.66" y="-1.01" width="51.2" height="51.26"/>
</svg>