<?xml version="1.0" encoding="UTF-8"?>
<svg id="Capa_1" data-name="Capa 1" xmlns="http://www.w3.org/2000/svg" viewBox="0 0 50 50">
  <defs>
    <style>
      .cls-1 {
        fill: none;
      }

      .cls-2 {
        fill: #ededed;
      }

      .cls-3 {
        fill: #fff;
      }

      .cls-4 {
        fill: #ffefae;
      }

      .cls-5 {
        fill: #729b39;
      }

      .cls-6 {
        fill: #d1ab0f;
      }
    </style>
  </defs>
  <g>
    <g>
      <path class="cls-5" d="M27.04,27.54c-.7,0-1.41-.06-2.11-.18-6.22-1.07-10.05-6.48-10.21-6.71-.13-.18-.08-.43,.1-.56,.18-.13,.43-.08,.56,.1,.04,.05,3.82,5.37,9.7,6.38,3.38,.58,6.82-.35,10.23-2.78,.18-.13,.43-.09,.56,.09s.09,.43-.09,.56c-2.89,2.06-5.81,3.09-8.73,3.09Z"/>
      <g>
        <path class="cls-3" d="M15.25,20.89c4.53,6.55,13.59,8.13,20.05,3.49,2.6-1.87,4.38-4.45,5.28-7.29-.29-.65-1.24-.87-1.72-.19-1.02,1.43-2.33,2.69-3.9,3.7-6.27,4.03-14.68,2.47-19.13-3.52-.69-.93-1.25-1.92-1.69-2.94-.14-.32-.62-.95-.9-1.01l-.07-.21-.54,.15c-.13,.14-.22,.31-.25,.54-.03,.2-.05,.4-.07,.6,.02,2.52,1.15,4.11,2.94,6.7Z"/>
        <path class="cls-3" d="M13.24,13.12c.28,.06,.76,.69,.9,1.01,.43,1.02,1,2.01,1.69,2.94,4.44,5.99,12.86,7.55,19.13,3.52,1.58-1.01,2.88-2.28,3.9-3.7,.48-.68,1.44-.46,1.72,.19,.06-.18,.11-.36,.16-.54-.12-.84-1.26-1.2-1.8-.45-1.02,1.43-2.33,2.69-3.9,3.7-6.27,4.03-14.68,2.47-19.13-3.52-.69-.93-1.25-1.92-1.69-2.94-.13-.3-.36-.48-.62-.55l-.43,.12,.07,.21Z"/>
        <path class="cls-4" d="M40.75,16.66s0-.07-.01-.11c0,.04,0,.07,.01,.11Z"/>
        <path class="cls-6" d="M40.75,16.66s0,.09,0,.14c0-.05,0-.1,0-.14Z"/>
        <path class="cls-6" d="M12.63,13.05l-.26,.07c-.04,.37-.05,.73-.05,1.06,.02-.2,.04-.4,.07-.6,.03-.22,.12-.4,.25-.54Z"/>
        <polygon class="cls-6" points="40.74 16.55 40.74 16.55 40.74 16.55 40.74 16.55"/>
        <path class="cls-2" d="M40.58,17.09c-.9,2.84-2.68,5.42-5.28,7.29-6.46,4.64-15.52,3.07-20.05-3.49-1.79-2.59-2.92-4.18-2.94-6.7-.29,3.23,.5,6.58,2.48,9.45,4.53,6.55,13.59,8.13,20.05,3.49,3.5-2.52,5.53-6.33,5.9-10.32-.02,.23-.05,.46-.08,.68,0-.15-.03-.28-.09-.4Z"/>
        <path class="cls-6" d="M40.74,16.55c-.05,.18-.1,.36-.16,.54,.05,.12,.09,.25,.09,.4,.03-.23,.06-.45,.08-.68,0-.05,0-.1,0-.14,0-.04,0-.07-.01-.11,0,0,0,0,0,0Z"/>
      </g>
      <path class="cls-5" d="M26.59,30.19c-.84,0-1.69-.07-2.54-.22-3.92-.68-7.32-2.85-9.57-6.11-1.96-2.83-2.86-6.28-2.55-9.71,0-.31,.01-.68,.05-1.07l.03-.27,1.6-.44,.11,.03c.4,.11,.71,.39,.88,.78,.43,1.01,.98,1.97,1.64,2.86,4.33,5.84,12.49,7.34,18.59,3.42,1.49-.96,2.77-2.17,3.8-3.6,.34-.47,.89-.68,1.45-.54,.57,.14,.99,.59,1.07,1.16,0,.05,.01,.1,.01,.15,0,.07,0,.13,0,.2-.4,4.25-2.61,8.12-6.06,10.61-2.51,1.81-5.46,2.75-8.49,2.75ZM12.74,13.44c-.02,.26-.03,.51-.03,.75-.29,3.29,.56,6.55,2.41,9.23,2.13,3.08,5.35,5.14,9.05,5.78,3.7,.64,7.4-.21,10.43-2.39,3.27-2.35,5.36-6.01,5.74-10.03,0-.03,0-.06,0-.09,0-.02,0-.04,0-.06h0c-.04-.3-.28-.46-.47-.5-.11-.03-.4-.06-.61,.23-1.08,1.51-2.43,2.79-4.01,3.81-6.45,4.14-15.09,2.55-19.67-3.62-.7-.94-1.28-1.96-1.73-3.02-.07-.16-.17-.24-.27-.29l-.84,.23Z"/>
    </g>
    <g>
      <path class="cls-5" d="M28.33,33.13c-1.81,0-3.56-.32-5.24-.95-7-2.65-10.26-9.82-10.4-10.13-.09-.2,0-.44,.2-.53,.2-.09,.44,0,.53,.2,.03,.07,3.27,7.18,9.96,9.71,3.84,1.45,8.09,1.14,12.63-.93,.2-.09,.44,0,.53,.2,.09,.2,0,.44-.2,.53-2.78,1.26-5.46,1.9-8.01,1.9Z"/>
      <g>
        <path class="cls-3" d="M13.19,22.48c3.82,8.69,14.06,12.59,22.66,8.63,3.46-1.59,6.12-4.21,7.81-7.32-.19-.83-1.25-1.3-1.97-.62-1.52,1.43-3.33,2.62-5.4,3.44-8.24,3.28-17.73-.45-21.57-8.46-.6-1.25-1.03-2.53-1.31-3.82-.09-.41-.51-1.26-.82-1.39l-.03-.26-.66,.05c-.18,.13-.33,.32-.41,.57-.08,.23-.15,.45-.21,.68-.54,2.95,.41,5.07,1.92,8.5Z"/>
        <path class="cls-3" d="M12.59,12.94c.32,.13,.74,.98,.82,1.39,.28,1.29,.71,2.58,1.31,3.82,3.85,8.02,13.33,11.75,21.57,8.46,2.07-.83,3.88-2.01,5.4-3.44,.72-.68,1.78-.21,1.97,.62,.11-.19-.89-2.28-1.7-1.52-1.52,1.43-3.33,2.62-5.4,3.44-8.24,3.28-17.73-.45-21.57-8.46-.6-1.25-1.03-2.53-1.31-3.82-.08-.38-.31-.64-.6-.78l-.53,.04,.03,.26Z"/>
        <path class="cls-6" d="M11.89,12.72l-.32,.02c-.13,.43-.23,.84-.3,1.23,.07-.23,.14-.46,.21-.68,.08-.25,.23-.44,.41-.57Z"/>
        <polygon class="cls-6" points="43.97 23.2 43.97 23.2 43.97 23.2 43.97 23.2"/>
        <path class="cls-2" d="M43.66,23.79c-1.69,3.11-4.36,5.73-7.81,7.32-8.6,3.96-18.84,.06-22.66-8.63-1.51-3.43-2.47-5.55-1.92-8.5-1.07,3.72-.9,7.81,.77,11.61,3.82,8.69,14.06,12.59,22.66,8.63,4.66-2.15,7.89-6.14,9.22-10.72-.08,.26-.16,.52-.25,.78,.03-.17,.02-.34-.01-.49Z"/>
        <path class="cls-6" d="M43.97,23.2c-.1,.2-.2,.4-.31,.59,.03,.15,.04,.32,.01,.49,.09-.26,.17-.52,.25-.78,.02-.06,.03-.11,.03-.17,0-.04,.01-.09,.01-.13,0,0,0,0,0,0Z"/>
      </g>
      <path class="cls-5" d="M27.65,36.18c-2.08,0-4.17-.38-6.19-1.14-4.42-1.67-7.89-4.97-9.79-9.28-1.64-3.74-1.92-7.96-.79-11.88,.07-.37,.17-.79,.3-1.23l.08-.26,1.9-.14,.1,.05c.42,.21,.71,.59,.81,1.06,.28,1.28,.71,2.54,1.28,3.74,3.76,7.84,13.01,11.47,21.06,8.27,1.97-.79,3.75-1.92,5.27-3.36,.48-.45,1.14-.56,1.73-.29,.61,.28,.98,.88,.95,1.53v.03c-.03,.18-.04,.3-.06,.36-1.42,4.86-4.86,8.86-9.44,10.98-2.3,1.06-4.75,1.59-7.22,1.59ZM11.87,13.13c-.09,.32-.16,.63-.21,.92-1.09,3.78-.82,7.81,.75,11.38,1.81,4.11,5.12,7.26,9.34,8.86,4.2,1.59,8.74,1.44,12.79-.43,4.37-2.02,7.65-5.83,9.01-10.47,0-.04,.03-.17,.03-.22,.01-.39-.25-.65-.48-.75-.14-.06-.5-.18-.84,.14-1.6,1.51-3.46,2.7-5.53,3.52-8.44,3.36-18.14-.44-22.08-8.66-.6-1.25-1.05-2.57-1.34-3.91-.05-.24-.18-.38-.3-.46l-1.12,.08Z"/>
    </g>
    <g>
      <path class="cls-3" d="M38.61,33.98c-2.14,.72-4.46,1.06-6.88,.94-9.61-.51-17.29-8.51-17.46-18.17-.03-1.5,.13-2.97,.44-4.37,.1-.45-.04-.83-.29-1.11l1.32-2.75-1.84-.81-.58,3.15c-.26,.04-.51,.16-.73,.39-3.04,3.25-4.92,7.6-5,12.39-.16,10.31,8.18,18.83,18.45,18.83,5.57,0,10.56-2.47,13.94-6.38,.86-1-.13-2.53-1.37-2.1Z"/>
      <path class="cls-3" d="M38.61,33.98c-2.14,.72-4.46,1.06-6.88,.94-9.61-.51-17.29-8.51-17.46-18.17-.03-1.5,.13-2.97,.44-4.37,.1-.45-.04-.83-.29-1.11l1.32-2.75-1.84-.81-.18,.99,.96,.15-.83,2.55c.25,.28,.28,1.3,.19,1.75-.31,1.4-.46,2.87-.44,4.37,.17,9.66,7.85,17.66,17.46,18.17,2.42,.13,4.74-.21,6.88-.94,1.2-.41,2.16,1,1.46,1.99,.2-.21,.4-.43,.6-.66,.86-1-.13-2.53-1.37-2.1Z"/>
      <path class="cls-2" d="M28.58,39.91c-10.27,0-18.61-8.52-18.45-18.83,.07-4.79,.07-7.44,3.1-10.69,.12-.13,.64-2.66,.78-2.72l-.11,.03-.58,3.15c-.26,.04-.51,.16-.73,.39-3.04,3.25-4.92,7.6-5,12.39-.16,10.31,8.18,18.83,18.45,18.83,5.57,0,10.56-2.47,13.94-6.38,.08-.09,.13-.18,.18-.27-3.17,2.57-7.2,4.11-11.59,4.11Z"/>
      <path class="cls-5" d="M26.05,42.86c-5.02,0-9.76-1.99-13.34-5.6-3.63-3.66-5.59-8.49-5.52-13.61,.07-4.73,1.88-9.24,5.11-12.69,.14-.15,.3-.27,.47-.36,.13-.07,.22-.17,.24-.29l.48-2.59c.03-.14,.12-.27,.25-.34,.13-.07,.28-.07,.42-.01l1.67,.74c.12,.05,.21,.15,.26,.27,.04,.12,.04,.26-.02,.38l-1.09,2.27c-.07,.14-.02,.29,.02,.37,.15,.32,.19,.69,.11,1.05-.33,1.5-.47,3.05-.42,4.6,.33,9.28,7.82,16.95,17.05,17.46,2.31,.12,4.59-.18,6.75-.91h0c.74-.25,1.49,0,1.93,.66,.44,.65,.39,1.49-.12,2.09-3.56,4.11-8.71,6.49-14.13,6.52-.04,0-.07,0-.11,0ZM14.2,8.27l-.4,2.19c-.07,.37-.31,.68-.67,.86-.09,.04-.17,.11-.25,.19-3.09,3.31-4.83,7.62-4.89,12.15-.07,4.9,1.81,9.53,5.29,13.03,3.43,3.46,7.96,5.36,12.77,5.36,.03,0,.07,0,.1,0,5.19-.03,10.12-2.3,13.53-6.24,.34-.39,.25-.85,.06-1.12-.18-.27-.54-.51-1.01-.35h0c-2.26,.77-4.64,1.09-7.05,.95-9.64-.53-17.46-8.53-17.8-18.23-.06-1.62,.09-3.24,.44-4.8,.04-.19,.03-.38-.05-.54-.16-.35-.17-.73-.01-1.06l.95-1.97-1-.44Zm-.37-.16s0,0,0,0h0Zm.44-.24h0s0,0,0,0Z"/>
      <path class="cls-5" d="M29.01,40.23h0c-5.64-.03-10.17-1.74-13.47-5.09-5.71-5.8-5.68-14.35-5.68-14.71,0-.22,.18-.4,.4-.4h0c.22,0,.4,.18,.4,.4,0,.09-.02,8.59,5.46,14.14,3.14,3.19,7.48,4.82,12.9,4.84,.22,0,.4,.18,.4,.4,0,.22-.18,.4-.4,.4Z"/>
    </g>
  </g>
  <rect class="cls-1" x="-.66" y="-1.01" width="51.2" height="51.26"/>
</svg>