<?xml version="1.0" encoding="UTF-8"?>
<svg id="Capa_1" data-name="Capa 1" xmlns="http://www.w3.org/2000/svg" viewBox="0 0 50 50">
  <defs>
    <style>
      .cls-1, .cls-2 {
        fill: none;
      }

      .cls-3 {
        fill: #729b39;
      }

      .cls-2 {
        stroke: #729b39;
        stroke-miterlimit: 10;
      }
    </style>
  </defs>
  <path class="cls-1" d="M20.48,25.86c-.77-.03-1.5-.41-2.05-.95-.2,.24-.45,.5-.7,.68l4.96,2.32v-3.24s-.04-.06-.05-.08c-.35,.81-1.27,1.3-2.15,1.27Z"/>
  <path class="cls-1" d="M32.23,20.44c.37-.61,.52-.72,.28-1.48-.06-.2-.11-.41-.12-.62-.46,.28-.99,.45-1.54,.48,.53,.46,1.05,1.01,1.38,1.62Z"/>
  <path class="cls-1" d="M27.64,23.63c.36,.57,.31,1.33-.04,1.92v2.36l4.86-2.32c-.52-.37-1.02-1.06-1.09-1.29-.05-.18-.08-.36-.09-.54-.24,.13-.51,.23-.77,.28-.96,.2-1.97-.03-2.86-.42Z"/>
  <path class="cls-2" d="M44.81,17.82c-.39-.12-.8-.04-1.21-.01-.79,.05-1.15-.15-.85-.87,.17-.42,.3-.85,.25-1.32-.21-1.77-2.31-1.58-3.4-.59-.06-.25-.15-.5-.26-.73-.06-.12-.12-.24-.19-.35-.54-.84-1.66-1.44-2.64-.99-.56,.26-.79,.76-.91,1.32-.12,.56-.12,.65-.74,.85-.27,.09-.54,.2-.79,.35-.53,.29-.98,.7-1.3,1.21-.31,.51-.43,1.08-.38,1.66,.02,.21,.06,.42,.12,.62,.24,.75,.09,.87-.28,1.48-.02,.04-.05,.08-.07,.12-.35,.59-.6,1.23-.76,1.89-.1,.43-.16,.88-.13,1.31,.01,.18,.04,.36,.09,.54,.07,.23,.57,.93,1.09,1.29,.38,.26,.76,.35,.98-.05-.64,1.18-.1,2.69,1.01,3.36,.13,.08,.28,.15,.43,.21,1.07,.39,2.04,0,2.94-.54-.12,.74-.18,1.68,.41,2.25,.43,.41,1.11,.49,1.67,.31,.76-.24,1.35-.87,1.67-1.6,.31-.71,.16-1.47,.38-2.17,1.28,1.67,3.01-.4,3.09-1.79,.07-1.2-.49-2.2-.84-3.29,.55-.11,1.09-.23,1.46-.7,.76-1,.53-3.33-.84-3.76Z"/>
  <path class="cls-2" d="M29.8,9.66c.58,.95,.44,2.5-.24,3.36,.5-.63,1.39-.9,2.18-.74,.79,.16,1.47,.72,1.88,1.41,.31,.54,.46,1.16,.45,1.78,.25-.14,.52-.26,.79-.35,.63-.2,.62-.29,.74-.85,.12-.56,.35-1.06,.91-1.32,.98-.45,2.1,.15,2.64,.99,.07,.11,.14,.23,.19,.35,.2-.1,.39-.22,.57-.36,.54-.45,.89-1.21,.63-1.86-.32-.83-1.37-1.08-2.26-1.11,.81-1.33,.23-3.27-1.12-4.04-1.35-.77-3.22-.35-4.22,.85-.3-.95-1.37-1.59-2.35-1.4-.98,.18-1.74,1.16-1.68,2.15-.42-.79-1.5-1.07-2.33-.75-.52,.2-.94,.58-1.24,1.05,.6-.22,1.27-.3,1.91-.28,.91,.03,2.06,.27,2.56,1.11Z"/>
  <path class="cls-2" d="M33.44,25.55c-.22,.41-.6,.32-.98,.05l-4.86,2.32v-2.36c-.11,.2-.26,.37-.44,.51-.7,.58-1.73,.65-2.57,.32-.81-.32-1.46-.97-1.91-1.72v3.24l-4.96-2.32c-.38,.27-.77,.37-.99-.04,.64,1.18,.1,2.69-1.01,3.36,1.21,1.43,3.69,5.34,3.69,13.47,0,0,6.23,3.31,11.34,0,0-8.13,2.48-12.04,3.69-13.47-1.1-.67-1.65-2.18-1.01-3.36Z"/>
  <path class="cls-2" d="M23.32,10.68c-.31-.08-.63-.12-.94-.14-1.05-.07-2.24,.07-2.89,.89-.72,.92-.44,2.23-.12,3.35-1.07-.4-2.37-.08-3.16,.74,.49,.29,.91,.68,1.2,1.16,.42,.7,.5,1.5,.25,2.28-.25,.8-.07,.88,.35,1.6,.07,.13,.15,.26,.21,.39,.24,.48,.42,.98,.55,1.5,.15,.61,.21,1.25,.03,1.85-.03,.12-.18,.35-.38,.6,.55,.54,1.28,.92,2.05,.95,.89,.03,1.81-.46,2.15-1.27,.02,.03,.03,.06,.05,.08,.45,.75,1.1,1.4,1.91,1.72,.84,.33,1.87,.25,2.57-.32,.18-.14,.32-.32,.44-.51,.35-.59,.4-1.35,.04-1.92,.9,.39,1.9,.62,2.86,.42,.27-.06,.53-.15,.77-.28-.04-.44,.02-.89,.13-1.31,.16-.66,.41-1.3,.76-1.89,.02-.04,.05-.08,.07-.12-.33-.61-.85-1.16-1.38-1.62,.54-.03,1.07-.2,1.54-.48-.06-.57,.07-1.15,.38-1.66,.31-.51,.77-.92,1.3-1.21,.01-.62-.14-1.24-.45-1.78-.41-.7-1.09-1.25-1.88-1.41-.79-.16-1.68,.11-2.18,.74,.68-.86,.82-2.41,.24-3.36-.51-.84-1.66-1.07-2.56-1.11-.64-.02-1.31,.06-1.91,.28-.09,.13-.17,.28-.24,.42-.04-.09-.09-.18-.14-.27-.27,.13-.52,.3-.75,.5-.38,.33-.66,.75-.87,1.19Z"/>
  <path class="cls-2" d="M13.67,12.96c.56,.26,.79,.76,.91,1.32,.12,.56,.12,.65,.74,.85,.31,.1,.61,.23,.89,.4,.8-.82,2.09-1.14,3.16-.74-.32-1.12-.59-2.44,.12-3.35,.65-.83,1.84-.96,2.89-.89,.31,.02,.63,.06,.94,.14,.22-.45,.5-.86,.87-1.19,.23-.2,.48-.37,.75-.5-.31-.54-.76-.98-1.34-1.2-.83-.32-1.91-.04-2.33,.75,.06-.99-.7-1.97-1.68-2.15-.98-.19-2.05,.45-2.35,1.4-.99-1.2-2.86-1.62-4.22-.85-1.35,.77-1.93,2.71-1.12,4.04-.89,.03-1.94,.28-2.27,1.11-.25,.65,.09,1.41,.63,1.86,.17,.15,.37,.26,.57,.36,.06-.12,.12-.24,.2-.35,.54-.84,1.66-1.44,2.63-.99Z"/>
  <path class="cls-2" d="M16.73,25.55c.22,.41,.61,.32,.99,.04,.25-.18,.5-.44,.7-.68,.2-.25,.35-.49,.38-.6,.17-.6,.11-1.24-.03-1.85-.12-.52-.31-1.02-.55-1.5-.07-.13-.14-.26-.21-.39-.42-.72-.6-.8-.35-1.6,.24-.77,.17-1.58-.25-2.28-.29-.48-.72-.87-1.2-1.16-.28-.17-.58-.3-.89-.4-.62-.2-.62-.29-.74-.85-.12-.56-.35-1.06-.91-1.32-.98-.45-2.09,.15-2.63,.99-.07,.11-.14,.23-.2,.35-.11,.23-.2,.48-.26,.73-1.09-.98-3.19-1.18-3.4,.59-.05,.46,.07,.89,.25,1.32,.3,.72-.06,.91-.85,.87-.41-.02-.82-.11-1.21,.01-1.37,.42-1.6,2.76-.84,3.76,.37,.47,.91,.59,1.46,.7-.35,1.09-.91,2.09-.84,3.29,.08,1.39,1.8,3.46,3.09,1.79,.21,.7,.07,1.46,.38,2.17,.32,.73,.91,1.36,1.67,1.6,.57,.18,1.24,.11,1.67-.31,.59-.57,.53-1.51,.41-2.25,.9,.54,1.87,.94,2.94,.54,.15-.06,.29-.12,.43-.21,1.1-.67,1.64-2.18,1.01-3.36Z"/>
  <path class="cls-3" d="M30.53,29.41c-.59,.88-.98,1.94-1.32,2.94-.94,2.8-1.28,5.78-1.29,8.73,0,.48,.75,.48,.75,0,0-2.88,.35-5.78,1.26-8.53,.32-.94,.68-1.93,1.24-2.76,.27-.4-.38-.78-.65-.38h0Z"/>
  <rect class="cls-1" x="-.66" y="-1.01" width="51.2" height="51.26"/>
</svg>