<?xml version="1.0" encoding="UTF-8"?>
<svg id="Capa_1" data-name="Capa 1" xmlns="http://www.w3.org/2000/svg" viewBox="0 0 50 50">
  <defs>
    <style>
      .cls-1 {
        fill: none;
      }

      .cls-2 {
        fill: #729b39;
      }
    </style>
  </defs>
  <g>
    <path class="cls-2" d="M33.22,30.84c-.56-.34-1.3-.16-1.64,.4-2.72,4.5-8.59,5.94-13.09,3.22-4.5-2.72-5.94-8.59-3.22-13.09,.34-.56,.16-1.3-.4-1.64s-1.3-.16-1.64,.4c-3.4,5.62-1.59,12.96,4.03,16.37s12.96,1.59,16.37-4.03c.34-.56,.16-1.3-.4-1.64Z"/>
    <path class="cls-2" d="M31.73,41.23l-.86-1.36c2.31-1.27,4.34-3.13,5.8-5.55,4.43-7.32,2.08-16.85-5.24-21.28-1.76-1.06-3.64-1.72-5.55-2.03l-2.62-4.16c-.93-1.47-2.57-2.16-4.2-1.76-1.63,.4-2.77,1.78-2.9,3.51l-.34,4.2c-2.25,1.27-4.23,3.11-5.66,5.48-4.43,7.32-2.08,16.85,5.24,21.28,1.93,1.17,4.02,1.85,6.12,2.11l-.17,2.11c-.04,.47,.2,.89,.57,1.12,.15,.09,.33,.15,.52,.17,.66,.05,1.23-.44,1.28-1.09l.18-2.19c.4-.01,.81-.05,1.21-.09l.56,2.29c.08,.32,.28,.58,.54,.73s.58,.22,.9,.14c.64-.16,1.03-.8,.87-1.44l-.53-2.16c.41-.11,.82-.23,1.23-.38l1.03,1.63c.1,.16,.24,.29,.39,.38,.37,.23,.86,.24,1.25-.01,.56-.35,.72-1.09,.37-1.64ZM12.21,19.52c.9-1.49,2.06-2.73,3.38-3.72l-.06,.77c-.04,.47,.2,.89,.57,1.12,.15,.09,.33,.15,.52,.17,.66,.05,1.23-.44,1.28-1.09l.64-7.97c.09-1.05,.86-1.33,1.1-1.38,.24-.06,1.05-.18,1.62,.72l4.27,6.76c.35,.55,1.09,.72,1.64,.37,.47-.3,.64-.86,.48-1.36,.88,.3,1.74,.69,2.56,1.19,6.18,3.74,8.17,11.82,4.43,18s-11.82,8.17-18,4.43-8.17-11.82-4.43-18Z"/>
    <path class="cls-2" d="M21.68,20.68c.49,1.86,.95,3.78,1.4,5.7,.46,1.94,.92,3.87,1.42,5.75,.08,.31,.28,.56,.54,.72s.59,.22,.92,.13c.64-.17,1.02-.82,.85-1.46-.49-1.87-.95-3.78-1.4-5.7-.46-1.94-.92-3.87-1.42-5.75-.17-.64-.82-1.02-1.46-.85-.64,.17-1.02,.82-.85,1.46Z"/>
    <path class="cls-2" d="M25.89,19.4c1.17,1.15,2.28,2.6,3.28,4.31,.83,1.41,1.86,3.17,1.48,4.55-.15,.53,.09,1.07,.53,1.34,.09,.06,.19,.1,.3,.13,.64,.17,1.29-.2,1.47-.83,.65-2.36-.72-4.69-1.72-6.4-1.11-1.9-2.35-3.51-3.67-4.81-.47-.46-1.23-.45-1.69,.02-.46,.47-.45,1.22,.02,1.68Z"/>
    <path class="cls-2" d="M19.37,32.1c.1,.14,.22,.24,.35,.33,.39,.24,.91,.24,1.31-.05,.54-.38,.66-1.13,.28-1.66-1.76-2.46-2.49-6.86-1.63-9.81,.19-.63-.18-1.29-.81-1.48-.63-.19-1.29,.18-1.48,.81-1.06,3.62-.19,8.83,1.97,11.87Z"/>
  </g>
  <rect class="cls-1" x="-.66" y="-1.01" width="51.2" height="51.26"/>
</svg>