<?xml version="1.0" encoding="utf-8"?>
<!-- Generator: Adobe Illustrator 27.0.0, SVG Export Plug-In . SVG Version: 6.00 Build 0)  -->
<svg version="1.1" id="Capa_1" xmlns="http://www.w3.org/2000/svg" xmlns:xlink="http://www.w3.org/1999/xlink" x="0px" y="0px"
	 viewBox="0 0 50 50" style="enable-background:new 0 0 50 50;" xml:space="preserve">
<style type="text/css">
	.fillGray{fill:#EDEDED;}
	.fillNone{fill:none;}
	.fillChile{fill:none;stroke:#729B39;stroke-miterlimit:10;}
</style>
<path class="fillGray" d="M34.9,17.7c3.2-1.6,6.5,1.9,5.7,6.3l-1.5,7.4l-1.5,3.5l2.3-10.3c0.7-3.7-1.8-6.9-4.6-6.1L34.9,17.7z"/>
<path class="fillGray" d="M29.3,16.2L26.5,18c-0.5,0.3-1.1,0.5-1.7,0.6c-0.6-0.1-1.1-0.2-1.7-0.6l-2.8-1.7c-3.4-2.1-6.9,1.6-6.1,6.1
	l4.3,21.2c0.4,2.3,2.2,4,4.3,4h0.6c0.1,0,0.1,0,0.2,0c0.4,0,0.7-0.1,1.1-0.1c0.4,0,0.7,0,1.1,0.1c0.1,0,0.1,0,0.2,0h0.6
	c2.1,0,3.9-1.7,4.3-4l4.3-21.2C36.2,17.8,32.6,14.2,29.3,16.2z M34.6,22.9l-4,19.8c-0.4,2.2-2.1,3.8-4,3.8H26c-0.1,0-0.1,0-0.2,0
	c-0.2,0-0.4,0-0.6,0v0c-0.1,0-0.3,0-0.4,0c-0.1,0-0.3,0-0.4,0v0c-0.2,0-0.4,0-0.6,0c-0.1,0-0.1,0-0.2,0h-0.6c-1.9,0-3.6-1.6-4-3.8
	l-4-19.8c-0.8-4.2,2.5-7.6,5.7-5.7l2.6,1.6c0.4,0.2,0.8,0.4,1.1,0.5v0.1c0.1,0,0.3,0,0.4,0c0.1,0,0.3,0,0.4,0v-0.1
	c0.4-0.1,0.8-0.2,1.1-0.5l2.6-1.6C32.1,15.3,35.4,18.7,34.6,22.9z"/>
<path class="fillGray" d="M14.5,18.4c-2.8-0.7-5.3,2.4-4.6,6.1l2.3,10.3l-1.5-3.5l-1.5-7.4c-0.8-4.3,2.5-7.9,5.7-6.3L14.5,18.4z"/>
<rect x="-0.7" y="-1" class="fillNone" width="51.2" height="51.3"/>
<path class="fillChile" d="M18.4,43.6l-4.3-21.5c-0.3-1.8,0-3.5,0.8-4.8c-3.5-1.4-6.9,1.9-6,6l5,20.4c0.5,2.3,2.5,3.9,4.8,3.9h0.6
	c0.5,0,1-0.2,1.4-0.6C19.5,46.4,18.6,45.2,18.4,43.6z"/>
<path class="fillChile" d="M34.9,17.4c0.8,1.2,1.2,2.9,0.8,4.8l-4.3,21.5c-0.3,1.6-1.2,2.8-2.3,3.5c0.3,0.3,0.8,0.6,1.4,0.6h0.6
	c2.2,0,4.3-1.6,4.8-3.9l5-20.4C41.9,19.3,38.4,15.9,34.9,17.4z"/>
<path class="fillChile" d="M24.9,18.3c0.4,0,0.9-0.1,1.3-0.2c0.1-2.1,0.4-4.2,0.9-6.3c0.5-2.1,1.2-4.4,2.8-5.7c0.6-0.5,1.4-1,1.5-1.9
	c0-0.8-0.7-1.5-1.4-1.5c-0.7,0-1.3,0.5-1.9,1.1c-2.6,2.6-4,6.5-4.6,10.3c-0.2,1.3-0.3,2.6-0.3,3.9C23.7,18.2,24.3,18.3,24.9,18.3z"
	/>
<path class="fillChile" d="M29.7,16l-2.8,1.7c-0.6,0.4-1.3,0.6-2,0.6c-0.7,0-1.4-0.2-2-0.6L20.1,16c-3.3-2.1-6.9,1.6-6,6.2l4.3,21.5
	c0.4,2.4,2.2,4.1,4.3,4.1h0.6c0.1,0,0.1,0,0.2,0c0.5-0.1,1-0.1,1.5-0.1c0.5,0,1,0,1.5,0.1c0.1,0,0.1,0,0.2,0h0.6
	c2,0,3.8-1.7,4.3-4.1l4.3-21.5C36.6,17.6,33,13.9,29.7,16z"/>
<line class="fillChile" x1="24.8" y1="18.5" x2="24.8" y2="47.6"/>
</svg>
