<?xml version="1.0" encoding="UTF-8"?>
<svg id="Capa_1" data-name="Capa 1" xmlns="http://www.w3.org/2000/svg" viewBox="0 0 50 50">
  <defs>
    <style>
      .cls-1 {
        fill: none;
      }

      .cls-2 {
        fill: #729b39;
      }
    </style>
  </defs>
  <g>
    <path class="cls-2" d="M38.76,25.48c-1.55-1.55-3.75-2.28-5.91-1.99-.62-1.1-1.53-2.04-2.66-2.69-.03-.02-.07-.04-.11-.05l-.37-.15c-2.21-.93-5.9-2.48-6.97-6.35-.1-.36-.24-.71-.37-.97-.07-.2-.29-.59-.29-.59,0,0,0,0,0,0-1.27-2.21-3.64-3.58-6.18-3.58-3.93,0-7.13,3.2-7.13,7.13,0,4.61,1.28,8.52,3.57,11.5-1.06,2.55-.56,5.61,1.51,7.68,3.78,3.78,8.12,5.68,12.45,5.68s8.67-1.89,12.45-5.67c2.74-2.74,2.74-7.2,0-9.94Zm-23.49,8.52c-1.96-1.96-1.96-5.15,0-7.12,.95-.95,2.23-1.46,3.56-1.46,.44,0,.89,.06,1.33,.18,0,0,.18,.04,.36,.11,.26,.09,.5,.2,.72,.32,.18,.1,.36,.18,.53,.27-.03,1.99,.83,3.56,2.43,4.37,.74,.37,1.58,.55,2.42,.55,1.42,0,2.86-.51,3.86-1.46,1.07-1.02,1.46-2.37,1.14-3.81,.21-.08,.42-.17,.6-.24l.3-.12c1.73-.45,3.56,.06,4.82,1.31,1.96,1.96,1.96,5.15,0,7.11-6.81,6.81-15.27,6.8-22.07,0Zm5.09-20.3s.1,.16,.17,.34c.12,.25,.22,.51,.29,.75,.03,.1,.07,.2,.1,.3-1.72,1.43-2.39,3.24-1.81,5.05,.7,2.19,3.14,3.95,5.47,3.95h.05c1.51-.02,2.69-.76,3.37-2.06,.34,.15,.66,.29,.95,.41l.3,.13c.66,.39,1.2,.92,1.62,1.53-2.21,.88-5.52,1.97-8.66,.19-.32-.17-.66-.33-.93-.42-.19-.09-.61-.2-.61-.2h0c-1.63-.44-3.34-.26-4.83,.44-1.34-2.05-2.06-4.7-2.06-7.87,0-.55-.45-1-1-1s-1,.45-1,1c0,3.54,.86,6.56,2.43,8.94-.12,.1-.24,.2-.35,.31-.14,.14-.26,.28-.39,.43-1.74-2.56-2.69-5.82-2.69-9.67,0-2.83,2.3-5.13,5.13-5.13,1.83,0,3.53,.99,4.45,2.6Zm.65,5.83c-.32-1.01,.12-1.86,.75-2.52,1.14,1.95,2.84,3.24,4.44,4.13-.34,.61-.87,.94-1.6,.94-1.47,0-3.15-1.18-3.59-2.56Zm4.09,9.36c-.72-.36-1.15-1-1.29-1.87,2.14,.47,4.2,.12,5.9-.39,.08,.65-.11,1.22-.6,1.68-.98,.93-2.78,1.19-4,.58Z"/>
    <path class="cls-2" d="M36.67,27.56c-.39-.39-1.02-.39-1.41,0-.39,.39-.39,1.02,0,1.41,.39,.39,.61,.91,.61,1.47s-.22,1.08-.61,1.47c-5.69,5.69-12.21,5.68-17.9,0-.39-.39-1.02-.39-1.41,0-.39,.39-.39,1.02,0,1.41,3.2,3.2,6.78,4.8,10.37,4.8s7.16-1.6,10.36-4.79c.77-.77,1.19-1.79,1.19-2.88,0-1.09-.42-2.11-1.19-2.88Z"/>
  </g>
  <rect class="cls-1" x="-.66" y="-1.01" width="51.2" height="51.26"/>
</svg>