<?xml version="1.0" encoding="UTF-8"?>
<svg id="Capa_1" data-name="Capa 1" xmlns="http://www.w3.org/2000/svg" viewBox="0 0 50 50">
  <defs>
    <style>
      .cls-1 {
        fill: none;
      }

      .cls-2 {
        fill: #729b39;
      }
    </style>
  </defs>
  <g>
    <path class="cls-2" d="M24.78,6.33C14.24,6.33,5.69,14.88,5.69,25.43s8.55,19.1,19.1,19.1,19.1-8.55,19.1-19.1S35.33,6.33,24.78,6.33Zm0,35.64c-9.13,0-16.55-7.42-16.55-16.55S15.66,8.88,24.78,8.88s16.55,7.42,16.55,16.55-7.42,16.55-16.55,16.55Z"/>
    <path class="cls-2" d="M26.03,23.21c.18,.1,.39,.16,.6,.16s.4-.05,.59-.17l7.66-5.56c.53-.33,.62-1.05,.2-1.55-.95-1.14-1.86-1.99-3.42-2.86-1.56-.88-2.75-1.22-4.22-1.44-.06,0-.12-.01-.18-.01-.57,0-1.04,.42-1.05,.99l-.78,9.43c0,.45,.25,.82,.61,1.02Zm2.58-8.56c.55,.17,1.12,.42,1.8,.8,.67,.38,1.18,.74,1.62,1.12l-3.8,2.76,.39-4.68Z"/>
    <path class="cls-2" d="M37.97,21.04c-.17-.44-.57-.71-.98-.71-.16,0-.32,.04-.47,.12l-8.6,3.95c-.39,.21-.59,.62-.59,1.03,0,.41,.2,.82,.59,1.03l8.6,3.95c.15,.08,.31,.12,.47,.12,.42,0,.81-.26,.98-.71,.53-1.39,.82-2.6,.82-4.38s-.29-3-.82-4.38Zm-1.92,6.34l-4.27-1.96,4.27-1.96c.12,.57,.18,1.19,.18,1.96s-.06,1.39-.19,1.96Z"/>
    <path class="cls-2" d="M35.31,32.61l-7.97-5.1c-.17-.09-.35-.14-.53-.14-.23,0-.46,.07-.65,.2-.34,.22-.58,.61-.55,1.05l1.33,9.37c.04,.54,.5,.93,1.04,.93,.08,0,.16,0,.24-.03,1.45-.31,2.63-.72,4.13-1.68,1.5-.97,2.37-1.86,3.25-3.06,.39-.53,.25-1.24-.29-1.54Zm-4.33,2.46c-.65,.42-1.21,.7-1.75,.9l-.66-4.65,3.96,2.53c-.41,.41-.9,.8-1.55,1.21Z"/>
    <path class="cls-2" d="M14.26,18.24l7.97,5.1c.17,.09,.35,.14,.53,.14,.23,0,.46-.07,.65-.2,.34-.22,.58-.61,.55-1.05l-1.33-9.37c-.04-.54-.5-.93-1.04-.93-.08,0-.16,0-.24,.03-1.45,.3-2.63,.72-4.13,1.68-1.5,.96-2.37,1.86-3.25,3.06-.39,.53-.25,1.24,.29,1.54Zm4.33-2.46c.65-.42,1.21-.7,1.75-.9l.66,4.65-3.96-2.53c.41-.41,.9-.8,1.55-1.21Z"/>
    <path class="cls-2" d="M22.24,25.43c0-.41-.2-.82-.59-1.03l-8.6-3.95c-.15-.08-.31-.12-.47-.12-.42,0-.81,.26-.98,.71-.53,1.39-.82,2.6-.82,4.38s.29,3,.82,4.38c.17,.44,.57,.71,.98,.71,.16,0,.32-.04,.47-.12l8.6-3.95c.39-.21,.59-.62,.59-1.03Zm-8.73,1.96c-.12-.57-.19-1.19-.19-1.96s.06-1.39,.18-1.96l4.27,1.96-4.27,1.96Z"/>
    <path class="cls-2" d="M23.53,27.65c-.18-.1-.39-.16-.6-.16s-.4,.05-.59,.17l-7.66,5.56c-.53,.33-.62,1.05-.2,1.55,.95,1.14,1.86,1.99,3.42,2.86,1.56,.88,2.75,1.22,4.22,1.44,.06,0,.12,.01,.18,.01,.57,0,1.04-.42,1.05-.99l.78-9.43c0-.45-.25-.82-.61-1.02Zm-2.57,8.56c-.55-.17-1.13-.42-1.8-.8-.67-.38-1.18-.74-1.62-1.12l3.8-2.76-.39,4.68Z"/>
  </g>
  <rect class="cls-1" x="-.66" y="-1.01" width="51.2" height="51.26"/>
</svg>