<?xml version="1.0" encoding="UTF-8"?>
<svg id="Capa_1" data-name="Capa 1" xmlns="http://www.w3.org/2000/svg" viewBox="0 0 50 50">
  <defs>
    <style>
      .cls-1 {
        fill: none;
      }

      .cls-2 {
        fill: #ededed;
      }

      .cls-3 {
        fill: #fff;
      }

      .cls-4 {
        fill: #729b39;
      }

      .cls-5 {
        fill: #5b7a2b;
      }
    </style>
  </defs>
  <g>
    <path class="cls-5" d="M21.03,30.91c0-5.01,4.17-9.08,4.17-9.08V3.93c-2.64,0-5.27,1.64-6.23,4.91,0,.03-.02,.06-.03,.09l-1.93,6.55c-.22,.78-.51,1.55-.85,2.3l-2.92,6.31c-2.6,5.63-1.6,12.12,2.59,16.86,1.67,1.89,3.78,3.42,6.17,4.47l.73,.32c.79,.35,1.63,.52,2.46,.52v-6.27s-4.17-4.06-4.17-9.08Z"/>
    <path class="cls-4" d="M37.15,24.09l-2.92-6.31c-.34-.75-.63-1.51-.85-2.3l-1.93-6.55s-.02-.06-.03-.09c-.96-3.27-3.6-4.91-6.23-4.91V21.84s4.17,4.06,4.17,9.08-4.17,9.08-4.17,9.08v6.27c.84,0,1.67-.17,2.46-.52l.73-.32c2.39-1.05,4.5-2.58,6.17-4.47,4.19-4.74,5.19-11.23,2.59-16.86Z"/>
    <path class="cls-2" d="M29.36,30.91c0-5.01-4.17-9.08-4.17-9.08v18.15s4.17-4.06,4.17-9.08Z"/>
    <path class="cls-3" d="M21.03,30.91c0,5.01,4.17,9.08,4.17,9.08V21.84s-4.17,4.06-4.17,9.08Z"/>
    <path class="cls-4" d="M24.81,26.33c0,.31-.25,.56-.56,.56s-.56-.25-.56-.56,.25-.56,.56-.56,.56,.25,.56,.56Z"/>
    <path class="cls-4" d="M25.86,23.41c0,.31-.25,.56-.56,.56s-.56-.25-.56-.56,.25-.56,.56-.56,.56,.25,.56,.56Z"/>
    <path class="cls-4" d="M25.86,27.61c-.05,.3-.34,.51-.64,.46-.3-.05-.51-.34-.46-.64s.34-.51,.64-.46,.51,.34,.46,.64Z"/>
    <path class="cls-4" d="M25.75,31.12c0,.31-.25,.56-.56,.56s-.56-.25-.56-.56,.25-.56,.56-.56,.56,.25,.56,.56Z"/>
    <path class="cls-4" d="M25.75,25.1c0,.31-.25,.56-.56,.56s-.56-.25-.56-.56,.25-.56,.56-.56,.56,.25,.56,.56Z"/>
    <path class="cls-4" d="M24.25,25.1c0,.31-.25,.56-.56,.56s-.56-.25-.56-.56,.25-.56,.56-.56,.56,.25,.56,.56Z"/>
    <path class="cls-4" d="M23.21,28.8c.13,.28,.02,.61-.26,.74s-.61,.02-.74-.26c-.13-.28-.02-.61,.26-.74,.28-.13,.61-.02,.74,.26Z"/>
    <path class="cls-4" d="M24.55,28.48c.13,.28,.02,.61-.26,.74-.28,.13-.61,.02-.74-.26-.13-.28-.02-.61,.26-.74,.28-.13,.61-.02,.74,.26Z"/>
    <path class="cls-4" d="M23.51,27.28c.13,.28,.02,.61-.26,.74-.28,.13-.61,.02-.74-.26-.13-.28-.02-.61,.26-.74,.28-.13,.61-.02,.74,.26Z"/>
    <path class="cls-4" d="M22.67,30.93c-.2,.23-.56,.25-.79,.05-.23-.2-.25-.56-.05-.79,.2-.23,.56-.25,.79-.05,.23,.2,.25,.56,.05,.79Z"/>
    <path class="cls-4" d="M24.19,30.63c-.2,.23-.56,.25-.79,.05s-.25-.56-.05-.79c.2-.23,.56-.25,.79-.05,.23,.2,.25,.56,.05,.79Z"/>
    <path class="cls-4" d="M24.81,36.32c0-.31-.25-.56-.56-.56s-.56,.25-.56,.56,.25,.56,.56,.56,.56-.25,.56-.56Z"/>
    <path class="cls-4" d="M25.58,37.92c0-.31-.25-.56-.56-.56s-.56,.25-.56,.56,.25,.56,.56,.56,.56-.25,.56-.56Z"/>
    <path class="cls-4" d="M25.86,34.72c0-.31-.25-.56-.56-.56s-.56,.25-.56,.56,.25,.56,.56,.56,.56-.25,.56-.56Z"/>
    <path class="cls-4" d="M23.21,33.85c.13-.28,.02-.61-.26-.74-.28-.13-.61-.02-.74,.26-.13,.28-.02,.61,.26,.74,.28,.13,.61,.02,.74-.26Z"/>
    <path class="cls-4" d="M24.55,34.17c.13-.28,.02-.61-.26-.74-.28-.13-.61-.02-.74,.26-.13,.28-.02,.61,.26,.74,.28,.13,.61,.02,.74-.26Z"/>
    <path class="cls-4" d="M25.81,32.89c.13-.28,.02-.61-.26-.74s-.61-.02-.74,.26-.02,.61,.26,.74,.61,.02,.74-.26Z"/>
    <path class="cls-4" d="M23.51,35.37c.13-.28,.02-.61-.26-.74-.28-.13-.61-.02-.74,.26-.13,.28-.02,.61,.26,.74,.28,.13,.61,.02,.74-.26Z"/>
    <path class="cls-4" d="M22.67,31.72c-.2-.23-.56-.25-.79-.05s-.25,.56-.05,.79c.2,.23,.56,.25,.79,.05,.23-.2,.25-.56,.05-.79Z"/>
    <path class="cls-4" d="M24.19,32.02c-.2-.23-.56-.25-.79-.05-.23,.2-.25,.56-.05,.79,.2,.23,.56,.25,.79,.05,.23-.2,.25-.56,.05-.79Z"/>
    <circle class="cls-4" cx="26.13" cy="26.33" r=".56"/>
    <path class="cls-4" d="M27.18,28.8c-.13,.28-.02,.61,.26,.74s.61,.02,.74-.26,.02-.61-.26-.74-.61-.02-.74,.26Z"/>
    <path class="cls-4" d="M25.83,28.48c-.13,.28-.02,.61,.26,.74s.61,.02,.74-.26c.13-.28,.02-.61-.26-.74s-.61-.02-.74,.26Z"/>
    <path class="cls-4" d="M26.87,27.28c-.13,.28-.02,.61,.26,.74,.28,.13,.61,.02,.74-.26s.02-.61-.26-.74c-.28-.13-.61-.02-.74,.26Z"/>
    <path class="cls-4" d="M27.71,30.93c.2,.23,.56,.25,.79,.05,.23-.2,.25-.56,.05-.79-.2-.23-.56-.25-.79-.05s-.25,.56-.05,.79Z"/>
    <circle class="cls-4" cx="26.61" cy="30.27" r=".56"/>
    <circle class="cls-4" cx="26.13" cy="36.32" r=".56"/>
    <path class="cls-4" d="M27.18,33.85c-.13-.28-.02-.61,.26-.74,.28-.13,.61-.02,.74,.26,.13,.28,.02,.61-.26,.74-.28,.13-.61,.02-.74-.26Z"/>
    <path class="cls-4" d="M25.83,34.17c-.13-.28-.02-.61,.26-.74,.28-.13,.61-.02,.74,.26,.13,.28,.02,.61-.26,.74-.28,.13-.61,.02-.74-.26Z"/>
    <path class="cls-4" d="M26.87,35.37c-.13-.28-.02-.61,.26-.74s.61-.02,.74,.26,.02,.61-.26,.74-.61,.02-.74-.26Z"/>
    <path class="cls-4" d="M27.71,31.72c.2-.23,.56-.25,.79-.05s.25,.56,.05,.79c-.2,.23-.56,.25-.79,.05-.23-.2-.25-.56-.05-.79Z"/>
    <path class="cls-4" d="M26.19,32.02c.2-.23,.56-.25,.79-.05,.23,.2,.25,.56,.05,.79-.2,.23-.56,.25-.79,.05s-.25-.56-.05-.79Z"/>
  </g>
  <rect class="cls-1" x="-.66" y="-1.01" width="51.2" height="51.26"/>
</svg>