<?xml version="1.0" encoding="UTF-8"?>
<svg id="Capa_1" data-name="Capa 1" xmlns="http://www.w3.org/2000/svg" viewBox="0 0 50 50">
  <defs>
    <style>
      .cls-1 {
        fill: none;
      }

      .cls-2 {
        fill: #729b39;
      }
    </style>
  </defs>
  <g>
    <path class="cls-2" d="M40.96,23.53c-.68-6.51-3.64-12.03-7.64-15.28-2.75-2.23-6-3.38-9.35-3.02-8.23,.87-10.69,12.61-12.81,21.44-1.53,6.36,3.64,12.03,7.64,15.28,2.75,2.23,6,3.38,9.35,3.02,8.23-.87,13.96-10.46,12.81-21.44Zm-27.46,2.89c2.9-9.72,4.61-18.13,10.71-18.85,2.61-.31,5.25,.59,7.62,2.51,3.66,2.96,6.19,8.08,6.78,13.69,1.02,9.66-3.79,18.12-10.71,18.85-2.62,.28-5.25-.59-7.62-2.51-3.66-2.96-8.4-8.28-6.78-13.69Z"/>
    <path class="cls-2" d="M26.5,13.33c.23,.19,.54,.29,.86,.26l1.66-.17c.65-.07,1.12-.65,1.05-1.29-.07-.65-.65-1.12-1.29-1.05l-1.66,.17c-.65,.07-1.12,.65-1.05,1.29,.03,.32,.2,.6,.43,.79Z"/>
    <path class="cls-2" d="M21.88,17.17c.23,.19,.54,.29,.86,.26l1.66-.17c.65-.07,1.12-.65,1.05-1.29-.07-.65-.65-1.12-1.29-1.05l-1.66,.17c-.65,.07-1.12,.65-1.05,1.29,.03,.32,.2,.6,.43,.79Z"/>
    <path class="cls-2" d="M31.25,18.69c.23,.19,.54,.29,.86,.26l1.66-.17c.65-.07,1.12-.65,1.05-1.29-.07-.65-.65-1.12-1.29-1.05l-1.66,.17c-.65,.07-1.12,.65-1.05,1.29,.03,.32,.2,.6,.43,.79Z"/>
    <path class="cls-2" d="M33.6,25.14c.23,.19,.54,.29,.86,.26l1.66-.17c.65-.07,1.12-.65,1.05-1.29-.07-.65-.65-1.12-1.29-1.05l-1.66,.17c-.65,.07-1.12,.65-1.05,1.29,.03,.32,.2,.6,.43,.79Z"/>
    <path class="cls-2" d="M32.21,31.15c.03,.32,.2,.6,.43,.79s.54,.29,.86,.26l1.66-.17c.65-.07,1.12-.65,1.05-1.29-.07-.65-.65-1.12-1.29-1.05l-1.66,.17c-.65,.07-1.12,.65-1.05,1.29Z"/>
    <path class="cls-2" d="M27.73,32.94l-1.66,.17c-.65,.07-1.12,.65-1.05,1.29,.03,.32,.2,.6,.43,.79s.54,.29,.86,.26l1.66-.17c.65-.07,1.12-.65,1.05-1.29-.07-.65-.65-1.12-1.29-1.05Z"/>
    <path class="cls-2" d="M21.54,21.88l-1.66,.17c-.65,.07-1.12,.65-1.05,1.29,.03,.32,.2,.6,.43,.79s.54,.29,.86,.26l1.66-.17c.65-.07,1.12-.65,1.05-1.29-.07-.65-.65-1.12-1.29-1.05Z"/>
    <path class="cls-2" d="M22.24,28.5l-1.66,.17c-.65,.07-1.12,.65-1.05,1.29,.03,.32,.2,.6,.43,.79s.54,.29,.86,.26l1.66-.17c.65-.07,1.12-.65,1.05-1.29-.07-.65-.65-1.12-1.29-1.05Z"/>
    <path class="cls-2" d="M24.97,22.7c.23,.19,.54,.29,.86,.26l3.31-.35c.65-.07,1.12-.65,1.05-1.29-.07-.65-.65-1.12-1.29-1.05l-3.31,.35c-.65,.07-1.12,.65-1.05,1.29,.03,.32,.2,.6,.43,.79Z"/>
    <path class="cls-2" d="M25.24,28.53c.03,.32,.2,.6,.43,.79s.54,.29,.86,.26l3.31-.35c.65-.07,1.12-.65,1.05-1.29-.07-.65-.65-1.12-1.29-1.05l-3.31,.35c-.65,.07-1.12,.65-1.05,1.29Z"/>
  </g>
  <rect class="cls-1" x="-.66" y="-1.01" width="51.2" height="51.26"/>
</svg>