<?xml version="1.0" encoding="UTF-8"?>
<svg id="Capa_1" data-name="Capa 1" xmlns="http://www.w3.org/2000/svg" viewBox="0 0 50 50">
  <defs>
    <style>
      .cls-1 {
        fill: none;
      }

      .cls-2 {
        fill: #729b39;
      }
    </style>
  </defs>
  <path class="cls-2" d="M37.61,19.2c0-.36-.19-.71-.5-.92l-.29-.2c-.35-.45-.73-.89-1.14-1.31-1.25-1.3-2.67-2.33-4.19-3.11l1.17-2.2c.21-.4,.17-.89-.11-1.25-.28-.36-.75-.52-1.19-.42l-4.03,.97c-.21-1.77-.89-3.55-2.12-4.82-.44-.46-1.18-.47-1.64-.03s-.47,1.18-.03,1.64c.93,.97,1.4,2.39,1.52,3.75l-7.88-1.72c-.5-.11-1.01,.12-1.26,.57-.25,.45-.18,1,.18,1.37l1.56,1.61c-1.78,.76-3.45,1.83-4.92,3.25-.21,.2-.39,.42-.58,.62-.22,.12-.39,.31-.5,.53-5.36,6.28-5.17,15.73,.69,21.79,6.23,6.44,16.5,6.62,22.94,.39,5.68-5.49,6.48-14.12,2.33-20.5ZM14.01,37.7c-4.96-5.13-5.17-13.13-.72-18.51l1.53,.05c-2.14,2.24-3.5,5.25-3.55,8.58-.06,3.51,1.32,6.72,3.58,9.07s5.43,3.83,8.94,3.89c.64,.01,1.17-.5,1.18-1.14,.01-.64-.5-1.17-1.14-1.18-5.75-.1-10.35-4.86-10.25-10.61,.06-3.56,1.91-6.68,4.68-8.51l.71,.02-1,6.78c-.05,.36,.07,.72,.31,.97,.09,.09,.19,.17,.3,.23,.44,.23,.98,.15,1.33-.2l5.93-5.73,6.48,5.22c.41,.33,.99,.34,1.42,.03,.42-.31,.58-.87,.39-1.36l-1.96-4.91h3.44c3.61,5.47,2.94,12.93-1.94,17.64-5.51,5.33-14.34,5.18-19.66-.34ZM24.85,13.61s.03,0,.05,0c-.15,.57-.37,1.03-.66,1.31-.46,.45-.47,1.18-.03,1.64s1.18,.47,1.64,.03c.79-.77,1.3-2.03,1.48-3.46l2.08-.5-.75,1.42c-.28,.52-.12,1.16,.37,1.5l3.69,2.52h-2.24c-.38,0-.74,.19-.96,.51-.22,.32-.26,.72-.12,1.08l.96,2.39-3.83-3.09c-.46-.37-1.11-.34-1.53,.07l-4.22,4.08,.69-4.7c.05-.33-.05-.66-.26-.91-.02-.02-.04-.04-.06-.06-.21-.22-.49-.34-.8-.35l-3.26-.1,3.61-1.93c.32-.17,.54-.48,.6-.84,.06-.36-.06-.72-.31-.99l-.56-.58,4.43,.96Z"/>
  <rect class="cls-1" x="-.66" y="-1.01" width="51.2" height="51.26"/>
</svg>