<?xml version="1.0" encoding="UTF-8"?>
<svg id="Capa_1" data-name="Capa 1" xmlns="http://www.w3.org/2000/svg" viewBox="0 0 50 50">
  <defs>
    <style>
      .cls-1 {
        fill: none;
      }

      .cls-2 {
        fill: #fff;
      }

      .cls-3 {
        fill: #729b39;
      }
    </style>
  </defs>
  <g>
    <g>
      <path class="cls-3" d="M39.55,30.09c-.17,5.59-2.16,10.12-7.15,12.77-4.68,2.48-9.5,2.32-13.92-.64-4.78-3.2-6.43-7.99-5.99-13.57,.36-4.58,2.2-8.72,3.98-12.88,.83-1.95,1.65-3.92,2.62-5.8,1.42-2.76,3.67-4.38,6.87-4.37,3.18,0,5.55,1.52,6.87,4.35,2.71,5.81,5.63,11.57,6.54,18.04,.1,.73,.13,1.48,.19,2.11Zm-25.53-1.01c.11,5.36,1.53,9.15,5.29,11.67,4.13,2.77,8.54,2.91,12.77,.34,4.49-2.73,6.26-7.09,5.7-12.14-.77-6.91-3.82-13.09-7.05-19.14-.93-1.74-2.66-2.49-4.68-2.54-3.16-.07-4.87,1.88-5.99,4.43-1.67,3.79-3.28,7.61-4.67,11.5-.78,2.17-1.07,4.52-1.37,5.88Z"/>
      <path class="cls-2" d="M14.47,33.3c-.47-2.22-.4-4.52,.05-6.74,.21-1.06,.48-2.23,.88-3.35,1.39-3.89,3-7.72,4.67-11.5,1.12-2.55,2.83-4.5,5.99-4.43,2.02,.04,3.75,.79,4.68,2.54,3.23,6.05,6.29,12.23,7.05,19.14,.56,5.04-1.21,9.41-5.7,12.14-4.24,2.57-8.65,2.43-12.77-.34-2.68-1.8-4.17-4.24-4.85-7.45Zm11.76-10.65c-4.51-.16-8.17,3.3-8.32,7.86-.14,4.47,3.39,8.19,7.88,8.31,4.42,.12,8.13-3.44,8.28-7.96,.15-4.32-3.42-8.05-7.85-8.21Z"/>
    </g>
    <path class="cls-3" d="M26.23,22.65c4.43,.16,8,3.89,7.85,8.21-.15,4.52-3.86,8.08-8.28,7.96-4.49-.12-8.03-3.85-7.88-8.31,.14-4.56,3.8-8.02,8.32-7.86Z"/>
    <path class="cls-2" d="M21,31.36c-.51,0-.94-.41-.95-.93,0-.1-.03-2.37,1.56-3.96,1.01-1.01,2.41-1.52,4.14-1.48,.52,0,.94,.44,.93,.96,0,.52-.43,.95-.96,.93-1.21-.03-2.13,.28-2.76,.91-1.02,1.01-1.02,2.59-1.02,2.6,0,.52-.41,.95-.93,.96,0,0,0,0-.01,0Z"/>
  </g>
  <rect class="cls-1" x="-.66" y="-1.01" width="51.2" height="51.26"/>
</svg>