<?xml version="1.0" encoding="UTF-8"?>
<svg id="Capa_1" data-name="Capa 1" xmlns="http://www.w3.org/2000/svg" viewBox="0 0 50 50">
  <defs>
    <style>
      .cls-1 {
        fill: none;
      }

      .cls-2 {
        fill: #fff;
      }

      .cls-3 {
        fill: #729b39;
      }
    </style>
  </defs>
  <path class="cls-3" d="M16.62,38.95c-4.77,0-9.8-3.74-12.29-9.59-3.08-7.27-1.07-15.09,4.47-17.44,2.73-1.16,5.87-.84,8.84,.89,2.91,1.69,5.32,4.54,6.8,8.03,1.48,3.48,1.85,7.2,1.04,10.47-.83,3.34-2.78,5.82-5.51,6.98-1.08,.46-2.21,.67-3.36,.67ZM12.2,12.74c-.97,0-1.92,.19-2.8,.56-4.79,2.03-6.43,8.97-3.68,15.48,2.76,6.51,8.9,10.15,13.68,8.12,2.28-.97,3.93-3.08,4.64-5.96,.73-2.95,.39-6.33-.96-9.52-1.35-3.19-3.54-5.79-6.17-7.31-1.57-.91-3.17-1.37-4.7-1.37Z"/>
  <path class="cls-3" d="M17.71,33.37c-.12,0-.24-.03-.36-.09-3.2-1.74-4.56-3.74-4.71-6.92-.03-.77,.11-1.52,.26-2.24,.3-1.52,.59-2.96-.63-4.76-.34-.51-1.1-1.08-2.16-1.03h-.01c-.41,0-.74-.33-.75-.74,0-.41,.33-.75,.74-.76,1.38,0,2.71,.63,3.43,1.7,1.56,2.32,1.17,4.3,.86,5.89-.13,.67-.26,1.3-.23,1.88,.12,2.65,1.18,4.18,3.92,5.67,.36,.2,.5,.65,.3,1.02-.14,.25-.39,.39-.66,.39Z"/>
  <g>
    <ellipse class="cls-2" cx="32.94" cy="25.1" rx="15.26" ry="11.44" transform="translate(0 50.19) rotate(-74.6)"/>
    <path class="cls-3" d="M31.24,40.87c-.86,0-1.71-.11-2.54-.34h0c-3.18-.88-5.71-3.33-7.11-6.91-1.38-3.5-1.52-7.68-.39-11.77,1.12-4.08,3.38-7.6,6.36-9.91,3.04-2.35,6.47-3.17,9.65-2.29s5.71,3.33,7.11,6.91c1.38,3.5,1.52,7.68,.39,11.77-1.12,4.08-3.38,7.6-6.36,9.91-2.24,1.74-4.69,2.63-7.1,2.63Zm-2.14-1.79c2.71,.75,5.67,.03,8.33-2.03,2.72-2.11,4.79-5.34,5.83-9.12,1.04-3.77,.92-7.62-.34-10.82-1.23-3.13-3.4-5.26-6.12-6.01-2.71-.75-5.67-.03-8.33,2.03-2.72,2.11-4.79,5.34-5.83,9.12-1.04,3.77-.92,7.61,.34,10.82,1.23,3.13,3.4,5.26,6.12,6.01h0Z"/>
  </g>
  <path class="cls-3" d="M30.56,35.14c-.29,0-.57-.17-.69-.46-1.59-3.73-1.4-6.42,.68-9.3,.5-.69,1.15-1.25,1.78-1.78,1.34-1.14,2.61-2.22,2.8-4.7,.06-.71-.24-1.75-1.22-2.5-.33-.25-.39-.72-.14-1.05,.25-.33,.72-.39,1.05-.14,1.22,.94,1.91,2.4,1.8,3.81-.24,3.1-1.95,4.56-3.33,5.73-.59,.5-1.14,.97-1.54,1.52-1.76,2.45-1.9,4.57-.51,7.83,.16,.38-.01,.82-.4,.98-.1,.04-.2,.06-.29,.06Z"/>
  <rect class="cls-1" x="-.66" y="-1.01" width="51.2" height="51.26"/>
</svg>