<?xml version="1.0" encoding="UTF-8"?>
<svg id="Capa_1" data-name="Capa 1" xmlns="http://www.w3.org/2000/svg" viewBox="0 0 65 64">
  <defs>
    <style>
      .cls-1 {
        fill: #fff;
      }

      .cls-2 {
        fill: #729b39;
      }
    </style>
  </defs>
  <g id="_496_Biology_Microscope_Science" data-name="496, Biology, Microscope, Science">
    <g>
      <g>
        <path class="cls-1" d="M41.48,9.1c0,.36-.09,.72-.27,1.08l-1.08,1.98-3.96-2.07,1.08-1.98c.54-1.08,1.98-1.53,3.06-.9,.72,.27,1.17,1.08,1.17,1.89Z"/>
        <path class="cls-1" d="M16.02,15.94c0,1.53-1.26,2.79-2.79,2.79s-2.79-1.26-2.79-2.79,1.26-2.79,2.79-2.79,2.79,1.26,2.79,2.79Z"/>
        <path class="cls-1" d="M18.81,13.15c1.53,0,2.79,1.26,2.79,2.79s-1.26,2.79-2.79,2.79-2.79-1.26-2.79-2.79,1.26-2.79,2.79-2.79Z"/>
        <path class="cls-1" d="M16.02,18.82c1.53,0,2.79,1.26,2.79,2.79s-1.26,2.79-2.79,2.79-2.79-1.26-2.79-2.79,1.26-2.79,2.79-2.79Z"/>
        <path class="cls-1" d="M45.8,32.67c.99,.54,1.71,1.71,1.71,2.97,0,1.89-1.53,3.42-3.42,3.42-.54,0-1.08-.09-1.53-.36-.27-.09-.45-.27-.63-.45q-.09-.09-.18-.18c-.27-.27-.45-.54-.63-.81,0-.09-.09-.18-.09-.18-.09-.27-.18-.63-.27-.9v-.45h0v-.18h0v-.18h0v-.36c0-.09,.09-.18,.09-.36v-.09c.09-.18,.09-.27,.18-.45l.09-.09,.09-.09h0l.09-.09h0c.18-.27,.54-.63,.81-.81l.09-.09c.09-.09,.27-.18,.36-.18,0,0,.09,0,.09-.09,.09,0,.18-.09,.27-.09h1.35c.72-.27,1.17-.09,1.53,.09Z"/>
        <polygon class="cls-1" points="52 51.38 52 55.88 11.53 55.88 11.53 51.38 17.19 51.38 46.43 51.38 52 51.38"/>
        <path class="cls-1" d="M46.43,50.57v.81H17.19v-.81c0-3.24,2.61-5.94,5.94-5.94h17.36c3.24,0,5.94,2.61,5.94,5.94Z"/>
        <path class="cls-1" d="M50.92,22.96l-3.15,5.94-1.98,3.78c-.36-.18-.81-.36-1.17-.36h-1.35c-.09,0-.18,.09-.27,.09s-.09,0-.09,.09c-.09,.09-.27,.09-.36,.18l-.09,.09c-.36,.18-.63,.45-.81,.81h0l-.09,.09h0l-.09,.09-.09,.09c-.09,.18-.18,.27-.18,.45v.09c0,.09-.09,.18-.09,.36v.36h0v.09h0v.18h0v.45c0,.36,.18,.63,.27,.9,0,.09,.09,.18,.09,.18,.18,.27,.36,.54,.63,.81q.09,.09,.18,.18c.18,.18,.45,.36,.63,.45l-2.52,4.5-.99,1.8h-9.98l-6.03-3.24c-1.17-.63-1.8-1.8-1.8-2.97,0-.54,.09-1.08,.36-1.62,.9-1.62,2.88-2.25,4.59-1.44l6.12,3.24c.99,.54,2.7-.81,3.24-1.8l4.95-9.26c.54-.99,.18-2.25-.81-2.7l-3.15-1.71,3.15-5.94,4.95,2.61,5.94,3.15Z"/>
        <polygon class="cls-1" points="27.81 20.89 34.19 9.01 36.17 10 40.13 12.16 42.11 13.24 40.04 17.2 36.8 23.14 34.73 27.09 31.68 28.08 27.72 25.92 26.82 22.87 27.81 20.89"/>
      </g>
      <g>
        <path class="cls-2" d="M16.02,25.57c-2.16,0-3.96-1.8-3.96-3.96s1.8-3.96,3.96-3.96,3.96,1.8,3.96,3.96-1.8,3.96-3.96,3.96Zm0-5.67c-.9,0-1.71,.72-1.71,1.71,0,.9,.72,1.71,1.71,1.71,.9,0,1.71-.72,1.71-1.71s-.81-1.71-1.71-1.71Z"/>
        <path class="cls-2" d="M31.68,29.16c-.18,0-.36,0-.54-.09l-3.96-2.07c-.27-.18-.45-.36-.54-.63l-.9-3.06c-.09-.27-.09-.63,.09-.9l7.38-13.94c.18-.27,.36-.45,.63-.54,.27-.09,.63-.09,.9,.09l1.98,1.08c.54,.27,.72,.99,.45,1.53-.27,.54-.99,.72-1.53,.45l-.99-.54-6.66,12.5,.63,2.16,3.15,1.71,2.16-.63,1.89-3.6c.27-.54,.99-.72,1.53-.45,.54,.27,.72,.99,.45,1.53l-2.07,3.96c-.18,.27-.36,.45-.63,.54l-3.06,.9h-.36Z"/>
        <path class="cls-2" d="M40.04,18.28c-.18,0-.36,0-.54-.09-.54-.27-.72-.99-.45-1.53l1.62-2.97-1.08-.54c-.54-.27-.72-.99-.45-1.53,.27-.54,.99-.72,1.53-.45l1.98,1.08c.27,.18,.45,.36,.54,.63,.09,.27,.09,.63-.09,.9l-2.07,3.96c-.27,.36-.63,.54-.99,.54Z"/>
        <path class="cls-2" d="M32.84,24.67c-.18,0-.36,0-.54-.09l-4.95-2.61c-.54-.27-.72-.99-.45-1.53,.27-.54,.99-.72,1.53-.45l4.95,2.61c.54,.27,.72,.99,.45,1.53-.27,.36-.63,.54-.99,.54Z"/>
        <path class="cls-2" d="M40.13,13.24c-.18,0-.36,0-.54-.09l-3.96-2.07c-.27-.18-.45-.36-.54-.63-.09-.27-.09-.63,.09-.9l1.08-1.98c.63-1.08,1.71-1.8,2.97-1.8,.54,0,1.08,.18,1.62,.36,1.08,.63,1.8,1.71,1.8,2.97,0,.54-.18,1.08-.36,1.62l-1.08,1.98c-.27,.36-.72,.54-1.08,.54Zm-2.43-3.69l1.98,1.08,.54-.99c.09-.18,.09-.36,.09-.54,0-.45-.27-.81-.63-.99-.18-.09-.36-.09-.54-.09-.45,0-.81,.27-.99,.63l-.45,.9Z"/>
        <path class="cls-2" d="M37.07,35.82c-.18,0-.36,0-.54-.09l-13.94-7.38c-.54-.27-.72-.99-.45-1.53,.27-.54,.99-.72,1.53-.45l13.94,7.38c.54,.27,.72,.99,.45,1.53-.18,.36-.54,.54-.99,.54Z"/>
        <path class="cls-2" d="M52,57.05H11.53c-.63,0-1.17-.54-1.17-1.17v-4.5c0-.63,.54-1.17,1.17-1.17h5.67c.63,0,1.17,.54,1.17,1.17s-.54,1.17-1.17,1.17h-4.5v2.25H50.92v-2.25h-4.5c-.63,0-1.17-.54-1.17-1.17s.54-1.17,1.17-1.17h5.67c.63,0,1.17,.54,1.17,1.17v4.5c-.09,.63-.63,1.17-1.26,1.17Z"/>
        <path class="cls-2" d="M46.43,52.55H17.19c-.63,0-1.17-.54-1.17-1.17v-.81c0-3.87,3.15-7.02,7.02-7.02h6.3c.63,0,1.17,.54,1.17,1.08,0,.63-.54,1.17-1.17,1.17h-6.3c-2.52,0-4.68,1.98-4.77,4.5h26.98c-.18-2.52-2.25-4.5-4.77-4.5h-.99c-.63,0-1.17-.54-1.17-1.17s.54-1.08,1.17-1.08h.99c3.87,0,7.02,3.15,7.02,7.02v.81c0,.63-.54,1.17-1.08,1.17Z"/>
        <path class="cls-2" d="M44.54,33.39h-.36c-.63-.09-1.08-.63-.99-1.17,.09-.63,.63-1.08,1.17-.99h.27c.63,.09,1.08,.63,.99,1.26,0,.54-.45,.9-1.08,.9Z"/>
        <path class="cls-2" d="M43.91,33.39c-.54,0-1.08-.45-1.08-.99-.09-.63,.45-1.17,.99-1.17h.18c.63,0,1.08,.54,1.08,1.17s-.45,1.08-1.08,1.08h0c0-.09-.09-.09-.09-.09Z"/>
        <path class="cls-2" d="M43.64,33.39c-.54,0-.99-.36-1.08-.99-.09-.63,.36-1.17,.9-1.26h.27c.63-.09,1.17,.45,1.26,.99,.09,.63-.36,1.17-.99,1.26h-.36Z"/>
        <path class="cls-2" d="M43.28,33.48c-.45,0-.9-.36-1.08-.81-.18-.63,.18-1.26,.81-1.35h.45c.63-.09,1.17,.36,1.26,.99,.09,.63-.36,1.17-.99,1.26h-.27c0-.09-.09-.09-.18-.09Z"/>
        <path class="cls-2" d="M41.39,34.83c-.27,0-.45-.09-.63-.18-.54-.36-.63-1.08-.27-1.53,.27-.45,.63-.81,1.08-1.08,.09,0,.09-.09,.18-.09,.18-.09,.36-.18,.54-.27h0s.09,0,.09-.09h0c.09-.09,.27-.09,.36-.09h0q.09,0,.18-.09c.63-.18,1.17,.18,1.35,.81,.18,.63-.18,1.17-.81,1.35h-.09q-.09,0-.18,.09h-.09c-.09,.09-.18,.09-.27,.18h0s-.09,0-.09,.09c-.18,.18-.36,.36-.54,.54-.09,.18-.45,.36-.81,.36Z"/>
        <path class="cls-2" d="M41.3,34.92c-.18,0-.45-.09-.63-.18-.54-.36-.72-.99-.36-1.53,0-.09,.09-.09,.09-.18,.36-.54,1.08-.63,1.53-.27,.54,.36,.63,1.08,.27,1.53v.09c-.18,.36-.54,.54-.9,.54Z"/>
        <path class="cls-2" d="M41.12,35.19c-.18,0-.36,0-.54-.09-.54-.27-.72-.99-.45-1.53,0-.09,.09-.09,.09-.18s.09-.09,.09-.18c.36-.54,1.08-.63,1.53-.36,.54,.36,.63,1.08,.36,1.53v.09h0s0,.09-.09,.09c-.18,.45-.54,.63-.99,.63Z"/>
        <path class="cls-2" d="M40.76,36.36h-.09c-.63-.09-1.08-.63-.99-1.26v-.36c0-.18,.09-.27,.09-.45,0-.09,0-.18,.09-.18,.27-.54,.9-.9,1.44-.63,.54,.27,.9,.9,.63,1.44h0q0,.09-.09,.18h0v.18h0c0,.72-.45,1.08-1.08,1.08Z"/>
        <path class="cls-2" d="M40.76,36.54h0c-.63,0-1.17-.54-1.17-1.17v-.18h0v-.09c.09-.63,.72-.99,1.26-.9,.63,.09,.99,.63,.9,1.26h0c.09,.63-.36,1.08-.99,1.08Z"/>
        <path class="cls-2" d="M40.76,36.72c-.63,0-1.17-.54-1.17-1.17v-.27c0-.63,.54-1.08,1.17-1.08s1.08,.54,1.08,1.17v.09c.09,.81-.45,1.26-1.08,1.26Z"/>
        <path class="cls-2" d="M40.76,37.26c-.54,0-.99-.45-1.08-.99v-.27c0-.63,.45-1.17,1.08-1.17s1.17,.45,1.17,1.08v.09c.09,.63-.36,1.17-.99,1.26h-.18Z"/>
        <path class="cls-2" d="M41.12,38.34c-.36,0-.81-.18-.99-.63-.09-.09-.09-.18-.09-.27-.27-.54,0-1.26,.54-1.53,.54-.27,1.26,0,1.53,.54,0,.09,.09,.09,.09,.18,.27,.54,.09,1.26-.45,1.53-.27,.18-.45,.18-.63,.18Z"/>
        <path class="cls-2" d="M41.93,39.33c-.27,0-.54-.09-.72-.27-.09-.09-.18-.09-.27-.18-.45-.45-.45-1.17,0-1.62,.45-.45,1.17-.45,1.62,0l.09,.09c.45,.36,.54,1.08,.09,1.62-.18,.27-.45,.36-.81,.36Z"/>
        <path class="cls-2" d="M39.5,45.8h-10.07c-.18,0-.36,0-.54-.09l-6.03-3.24c-1.44-.81-2.43-2.34-2.43-3.96,0-.72,.18-1.44,.54-2.07,1.17-2.16,3.87-3.06,6.12-1.89l6.12,3.24c.36,0,1.44-.72,1.8-1.35l4.86-9.44c.09-.18,.18-.45,.09-.72-.09-.27-.27-.45-.45-.54l-3.15-1.71c-.27-.18-.45-.36-.54-.63-.09-.27-.09-.63,.09-.9l3.15-5.94c.18-.27,.36-.45,.63-.54,.27-.09,.63-.09,.9,.09l10.97,5.76c.27,.18,.45,.36,.54,.63,.09,.27,.09,.63-.09,.9l-5.13,9.71c-.27,.54-.99,.72-1.53,.45-.54-.27-.72-.99-.45-1.53l4.59-8.72-8.9-4.77-2.07,3.96,2.16,1.17c.72,.36,1.26,1.08,1.53,1.89,.27,.81,.18,1.62-.27,2.43l-5.04,9.44c-.72,1.26-2.97,3.24-4.77,2.34l-6.12-3.24c-1.08-.54-2.43-.18-3.06,.9-.18,.36-.27,.72-.27,1.08,0,.81,.45,1.62,1.17,1.98l5.76,3.06h9.08l2.88-5.4c.27-.54,.99-.72,1.53-.45,.54,.27,.72,.99,.45,1.53l-3.15,5.94c-.18,.36-.54,.63-.9,.63Z"/>
        <path class="cls-2" d="M44.18,40.14c-.72,0-1.35-.18-1.98-.45-.36-.18-.63-.36-.9-.63-.09-.09-.18-.18-.27-.18-.36-.36-.63-.72-.81-1.08,0-.09-.09-.18-.09-.27h0c-.18-.36-.27-.81-.36-1.26v-1.17h0v-.45c0-.18,.09-.27,.09-.45h0q0-.09,.09-.18c.09-.18,.18-.45,.27-.63,0-.09,.09-.09,.09-.18s.09-.09,.09-.18h0c0-.09,.09-.09,.09-.18h0c.27-.45,.63-.81,1.08-1.08q.09-.09,.18-.09c.18-.09,.36-.18,.45-.27,.09,0,.09-.09,.18-.09,.09-.09,.27-.09,.36-.09s.09,0,.18-.09h1.62c.54,.09,1.08,.27,1.62,.54,1.44,.81,2.34,2.34,2.34,3.96,.18,2.52-1.89,4.5-4.32,4.5Zm-2.07-3.6q0,.09,.09,.18c.09,.18,.27,.36,.45,.54l.09,.09c.18,.09,.27,.18,.45,.27,.27,.18,.63,.27,.99,.27,1.26,0,2.25-.99,2.25-2.25,0-.81-.45-1.53-1.17-1.98-.27-.18-.54-.27-.81-.27h-1.08q-.09,0-.18,.09h-.09c-.09,0-.18,.09-.27,.09h-.09c-.18,.18-.36,.36-.54,.54h0v.09h0v.18c-.09,.09-.09,.18-.09,.27h0v.09c0,.09,0,.18-.09,.18v.09h0v.09h0v.09h0v.27h0v.09c-.09,.63,0,.81,.09,.99Z"/>
        <path class="cls-2" d="M18.81,19.9c-2.16,0-3.96-1.8-3.96-3.96s1.8-3.96,3.96-3.96,3.96,1.8,3.96,3.96-1.8,3.96-3.96,3.96Zm0-5.58c-.9,0-1.71,.72-1.71,1.71,0,.9,.72,1.71,1.71,1.71,.9,0,1.71-.72,1.71-1.71s-.72-1.71-1.71-1.71Z"/>
        <path class="cls-2" d="M13.24,19.9c-2.16,0-3.96-1.8-3.96-3.96s1.8-3.96,3.96-3.96,3.96,1.8,3.96,3.96-1.8,3.96-3.96,3.96Zm0-5.58c-.9,0-1.71,.72-1.71,1.71,0,.9,.72,1.71,1.71,1.71,.9,0,1.71-.72,1.71-1.71s-.81-1.71-1.71-1.71Z"/>
      </g>
    </g>
  </g>
</svg>