<?xml version="1.0" encoding="utf-8"?>
<!-- Generator: Adobe Illustrator 27.0.0, SVG Export Plug-In . SVG Version: 6.00 Build 0)  -->
<svg version="1.1" id="Capa_1" xmlns="http://www.w3.org/2000/svg" xmlns:xlink="http://www.w3.org/1999/xlink" x="0px" y="0px"
	 viewBox="0 0 50 50" style="enable-background:new 0 0 50 50;" xml:space="preserve">
<style type="text/css">
	.st0{fill:none;}
	.st1{fill:#EDEDED;}
	.st2{fill:#729B39;}
</style>
<rect x="-0.7" y="-1" class="st0" width="51.2" height="51.3"/>
<g>
	<path class="st1" d="M33.2,48.5C33.2,48.5,33.2,48.5,33.2,48.5c-0.3,0-0.5-0.3-0.5-0.5c1.4-13.8-6.9-30.8-7-31
		c-0.1-0.2,0-0.5,0.2-0.7c0.2-0.1,0.5,0,0.7,0.2c0.1,0.2,8.5,17.5,7.1,31.6C33.7,48.3,33.5,48.5,33.2,48.5z"/>
	<path class="st1" d="M12.7,27.1c-0.1,0-0.1,0-0.2,0c-0.2-0.1-0.3-0.3-0.2-0.5l0.4-1l-0.3-2.1c0-0.1,0-0.3,0.2-0.3s0.3-0.1,0.4,0
		l1.1,0.5l0.2-0.2l-0.6-1.8c0-0.1,0-0.3,0.1-0.4c0.1-0.1,0.3-0.1,0.4-0.1l1.3,0.5l1.4-1.9l-0.5-1.5c0-0.1,0-0.3,0.1-0.4
		s0.3-0.1,0.4-0.1l1.3,0.5l2.9-3c0.1-0.1,0.4-0.2,0.5,0c0.1,0.1,0.1,0.4,0,0.5l-3.1,3.1c-0.1,0.1-0.3,0.1-0.4,0.1l-0.8-0.3l0.3,0.9
		c0,0.1,0,0.2-0.1,0.3l-1.6,2.3c-0.1,0.1-0.3,0.2-0.4,0.1l-0.8-0.3l0.4,1.2c0,0.1,0,0.2,0,0.3l-0.4,0.7c-0.1,0.2-0.3,0.2-0.5,0.1
		l-0.8-0.4l0.2,1.6c0,0.1,0,0.1,0,0.2L13,26.9C12.9,27,12.8,27.1,12.7,27.1z"/>
	<path class="st1" d="M7.4,18.1c-0.1,0-0.2-0.1-0.3-0.2c-0.1-0.2-0.1-0.4,0.1-0.5c1.3-0.8,2.7-1.2,3.9-1.6l0.2-0.1
		c0.2-0.1,0.3-0.5,0.3-0.8c0.1-0.4,0.1-0.9,0.5-1.1c0.4-0.2,0.8,0.3,1,0.8c0.1,0.1,0.2,0.3,0.3,0.4l0.3-0.1c0.4-0.1,0.8-0.3,1.2-0.4
		c0.1-0.1,0.2-0.5,0.3-0.8c0.2-0.6,0.4-0.9,0.7-1c0.1,0,0.3,0,0.4,0.1c0.2,0.2,0.3,0.4,0.5,0.5c0.1,0.2,0.3,0.4,0.4,0.4
		c2.3-0.3,3.7-0.4,3.8-0.4c0.2,0,0.4,0.2,0.4,0.4s-0.2,0.4-0.4,0.4c0,0-1.5,0.1-3.8,0.4c-0.4,0.1-0.7-0.3-1-0.7c0,0-0.1-0.1-0.1-0.1
		c0,0.1-0.1,0.2-0.1,0.3c-0.3,0.7-0.4,1.1-0.8,1.2c-0.4,0.1-0.8,0.2-1.2,0.4l-0.4,0.1c-0.4,0.1-0.7-0.3-1-0.7
		c-0.1-0.1-0.1-0.2-0.2-0.3c0,0.1,0,0.2,0,0.3c-0.1,0.5-0.2,1.2-0.8,1.4l-0.2,0.1c-1.2,0.4-2.5,0.8-3.7,1.5
		C7.6,18,7.5,18.1,7.4,18.1z"/>
	<path class="st1" d="M20.6,29c-0.2,0-0.4-0.2-0.4-0.4c0-1.5,0.1-2.5,0.4-3.8c0.1-0.2-0.3-0.5-0.6-0.7c-0.3-0.3-0.7-0.6-0.6-1
		c0.1-0.4,0.6-0.5,1.1-0.6c0.1,0,0.4,0,0.5-0.1l0,0c0.1-0.6,0.2-0.9,0.4-1.4c0,0-0.3-0.4-0.4-0.7c-0.4-0.6-0.6-0.9-0.5-1.2
		c0-0.1,0.2-0.2,0.3-0.3c0.2-0.1,0.5-0.1,0.8-0.1c0.2,0,0.5,0,0.6-0.1c0.8-2,1-2.7,1-2.7c0-0.2,0.2-0.3,0.4-0.3
		c0.2,0,0.3,0.2,0.3,0.4c0,0-0.1,0.7-1.1,2.9c-0.2,0.4-0.6,0.4-1.1,0.5c-0.1,0-0.2,0-0.3,0c0.1,0.1,0.2,0.2,0.2,0.3
		c0.4,0.6,0.6,1,0.5,1.3c-0.2,0.5-0.2,0.8-0.4,1.4l0,0.2c-0.1,0.4-0.6,0.5-1.1,0.5c-0.1,0-0.2,0-0.4,0c0.1,0.1,0.2,0.2,0.3,0.2
		c0.4,0.4,0.9,0.8,0.8,1.5c-0.3,1.3-0.4,2.2-0.4,3.6C21,28.8,20.8,29,20.6,29C20.6,29,20.6,29,20.6,29z"/>
	<path class="st1" d="M22.4,12c-0.1,0-0.2,0-0.2-0.1C14.3,5.7,8.3,9.7,8,9.8C7.8,9.9,7.6,9.9,7.5,9.7C7.4,9.6,7.4,9.3,7.6,9.2
		c0.1,0,6.7-4.5,15,2.2c0.2,0.1,0.2,0.4,0.1,0.5C22.6,12,22.5,12,22.4,12z"/>
	<path class="st1" d="M22.5,11.6C22.4,11.6,22.4,11.6,22.5,11.6c-0.2,0-0.4-0.2-0.4-0.4c0.6-9.6,8.6-9.7,8.8-9.7c0,0,0,0,0,0
		c0.2,0,0.4,0.2,0.4,0.4c0,0.2-0.2,0.4-0.4,0.4c0,0,0,0,0,0c-0.5,0-7.5,0.2-8,9C22.8,11.4,22.7,11.6,22.5,11.6z"/>
	<path class="st1" d="M39.9,20.9c-0.2,0-0.3-0.1-0.4-0.3c0-0.1-1.4-6.1-13.9-6.5c-0.2,0-0.4-0.2-0.4-0.4c0-0.2,0.2-0.4,0.4-0.4
		c13.2,0.5,14.6,6.8,14.6,7.1C40.3,20.6,40.2,20.8,39.9,20.9C40,20.8,40,20.9,39.9,20.9z"/>
	<path class="st1" d="M24.3,12.1c-0.1,0-0.2-0.1-0.3-0.2c-0.1-0.2-0.1-0.4,0.1-0.5c8.9-6.5,15.5-0.6,15.6-0.5c0.2,0.1,0.2,0.4,0,0.5
		c-0.1,0.2-0.4,0.2-0.5,0c-0.3-0.2-6.2-5.5-14.7,0.6C24.5,12,24.4,12.1,24.3,12.1z"/>
	<path class="st2" d="M34,48.8C34,48.8,34,48.8,34,48.8l-7,0c-0.1,0-0.2,0-0.3-0.1c-0.1-0.1-0.1-0.2-0.1-0.3c0-0.1,1.7-9.3,0.7-17.9
		c-0.8-6.7-2.8-11.7-3.6-13.6c-0.2,0.7-0.4,1.4-0.6,2.1l-0.1,0.5c0,0.2-0.2,0.3-0.4,0.3c0,0,0,0,0,0l-0.6,0l0.5,0.6
		c0.1,0.1,0.1,0.2,0.1,0.3l-0.2,0.7c-0.2,0.6-0.3,1-0.4,1.7c0,0.2-0.2,0.3-0.4,0.3l-0.4,0l0.5,0.5c0.1,0.1,0.1,0.2,0.1,0.3
		c-0.5,2.8-0.5,4.7-0.5,4.7c0,0.1-0.1,0.3-0.2,0.3c-0.1,0.1-0.3,0-0.4,0c-2-1.5-2.8-3.6-2.5-6.7c0.2-1.6,0.9-3.3,1.6-4.7
		c-0.4,0.5-0.8,0.9-1.2,1.3c-0.1,0.1-0.3,0.2-0.5,0.1L18,19.1l0.1,0.5c0,0.1,0,0.2-0.1,0.3c-0.8,1-1.3,1.7-1.9,2.6
		c-0.1,0.2-0.3,0.2-0.5,0.1l-0.5-0.3l0.3,0.8c0,0.1,0,0.2,0,0.3c-0.1,0.2-0.2,0.3-0.3,0.5c-0.1,0.1-0.2,0.3-0.3,0.5
		c-0.1,0.1-0.1,0.2-0.2,0.2c-0.1,0-0.2,0-0.3-0.1L14,24.4l0.3,1c0,0.1,0,0.2,0,0.3c-0.6,1.2-0.8,1.6-0.8,1.6c0,0.1-0.2,0.2-0.3,0.3
		c-0.1,0-0.3,0-0.4-0.2c-1.8-2.9-1.7-6.1,0.3-8.7c1.2-1.6,3.8-3,5.6-3.9c-0.6,0.1-1.2,0.2-1.8,0.3c-0.2,0-0.3,0-0.4-0.2l-0.3-0.5
		l-0.3,0.8c0,0.1-0.1,0.2-0.3,0.2c-0.7,0.2-1.1,0.3-1.5,0.5c-0.2,0.1-0.5,0.2-0.8,0.3c-0.2,0.1-0.4,0-0.4-0.2l-0.3-0.5l-0.2,0.7
		c0,0.1-0.1,0.2-0.2,0.3c-2.9,1-4.9,2.1-4.9,2.1c-0.1,0.1-0.3,0.1-0.4,0c-0.1-0.1-0.2-0.2-0.2-0.3c0.1-3.1,3-5.7,7.1-6.2
		c2-0.3,3.9-0.2,5.3-0.1c-0.6-0.2-1.3-0.4-2-0.6c-0.1,0-0.2-0.1-0.3-0.3l-0.2-0.7l-0.4,0.5c-0.1,0.1-0.2,0.2-0.4,0.1
		c-0.3-0.1-0.5-0.1-0.7-0.1l-0.3-0.1c-0.1,0-0.2-0.1-0.3-0.2l-0.3-0.6l-0.5,0.4c-0.1,0.1-0.2,0.1-0.3,0.1l-0.2,0
		c-0.3,0-0.5,0-0.9-0.1c-0.2,0-0.3-0.1-0.3-0.3l-0.1-0.5l-0.4,0.6c-0.1,0.1-0.2,0.2-0.3,0.2c-2.5-0.2-4-0.2-4-0.2
		c-0.2,0-0.3-0.1-0.4-0.2c-0.1-0.1,0-0.3,0.1-0.4c1.3-1.2,4.7-3.2,8.1-2.4c2.6,0.6,5.7,2.6,7,3.6c-0.1-2.7,0.8-6.5,3.3-8.1
		c3.4-2.1,6.5-1.4,6.6-1.3c0.1,0,0.3,0.2,0.3,0.3c0,0.1,0,0.3-0.2,0.4c-1.1,0.7-2.2,1.5-3.1,2.4c-0.1,0.1-0.2,0.1-0.3,0.1l-0.7-0.1
		l0.2,0.3c0.1,0.1,0.1,0.3-0.1,0.4c-0.9,0.9-1.3,1.6-1.8,2.5l-0.1,0.2c-0.1,0.1-0.3,0.2-0.4,0.2L25.3,8l0.3,0.4
		c0.1,0.1,0.1,0.3,0,0.4c-0.4,0.7-0.6,1.3-0.7,1.8c1.3-1.1,4.1-3.1,7.4-3.1c4.6-0.1,8.3,3.2,8.5,3.3c0.1,0.1,0.2,0.3,0.1,0.4
		c-0.1,0.1-0.2,0.2-0.3,0.2l-0.8,0c-1.6,0-2.6,0.1-4,0.2c-0.1,0-0.2,0-0.3-0.1l-1-0.8l0.2,0.5c0,0.1,0,0.2,0,0.3
		c-0.1,0.1-0.2,0.2-0.3,0.2c-0.5,0.1-1,0.1-1.5,0.2c-0.1,0-0.2,0-0.3-0.1L32,11.5l0,0.3c0,0.2-0.2,0.3-0.3,0.3
		c-0.4,0.1-0.6,0.1-0.8,0.2c-0.1,0-0.3,0.1-0.5,0.1c-0.1,0-0.2,0-0.3-0.1l-0.8-0.5l0.1,0.3c0,0.1,0,0.2,0,0.3
		c-0.1,0.1-0.1,0.2-0.2,0.2c-0.6,0.1-1.1,0.3-1.5,0.4c2,0,4.9,0.1,7.1,1.1c4.6,2.1,6.1,6.5,6.2,6.7l0,0c0,0,0,0.1,0,0.1
		c0,0.1-0.1,0.3-0.2,0.3c-0.1,0.1-0.3,0.1-0.4,0l0,0c0,0,0,0,0,0c0,0,0,0,0,0c-0.1-0.1-1.5-0.9-2.6-1.4c-0.1,0-0.1-0.1-0.2-0.1
		L37,18.9l0,0.2c0,0.1-0.1,0.3-0.2,0.3c-0.1,0.1-0.2,0.1-0.4,0l-0.2-0.1c-0.3-0.1-0.6-0.3-0.9-0.4c-0.1,0-0.2-0.1-0.2-0.2l-0.4-1
		l-0.2,0.6c0,0.1-0.1,0.2-0.2,0.2c-0.1,0-0.2,0-0.3,0c-0.6-0.2-1-0.4-1.3-0.6c-0.4-0.2-0.7-0.4-1.3-0.6c-0.1,0-0.2-0.1-0.2-0.2
		l-0.5-1.2l-0.4,0.8c-0.1,0.2-0.3,0.2-0.5,0.2c-1.5-0.5-2.7-0.9-3.5-1.1c1,1.6,3,5.3,5.1,11.6c2.9,8.5,2.8,20.7,2.8,20.8
		c0,0.1,0,0.2-0.1,0.3C34.2,48.8,34.1,48.8,34,48.8z M27.5,48l6.1,0c0-2.1-0.3-12.6-2.8-20.2c-2.8-8.4-5.6-12.3-5.6-12.3
		c-0.1-0.1-0.1-0.3,0-0.4c0.1-0.1,0.3-0.2,0.4-0.1c0,0,1.6,0.5,4.2,1.3l0.6-1.2c0.1-0.1,0.2-0.2,0.3-0.2c0.1,0,0.3,0.1,0.3,0.2
		l0.8,1.7c0.5,0.2,0.9,0.4,1.2,0.5c0.3,0.1,0.5,0.3,0.9,0.4l0.4-1.1c0.1-0.1,0.2-0.2,0.3-0.2c0.2,0,0.3,0.1,0.4,0.2l0.7,1.7
		c0.1,0.1,0.3,0.1,0.4,0.2l0-1c0-0.2,0.1-0.3,0.3-0.4c0.2-0.1,0.3,0,0.4,0.1l1.3,1.8c0.3,0.1,1,0.5,1.6,0.8
		c-0.7-1.4-2.3-3.8-5.3-5.2c-3.3-1.5-8.9-0.9-9-0.9c-0.2,0-0.3-0.1-0.4-0.2c-0.1-0.2,0-0.3,0.1-0.4c0,0,0.8-0.6,3.4-1.2l-0.3-0.9
		c0-0.2,0-0.3,0.1-0.4c0.1-0.1,0.3-0.1,0.4,0l1.5,1c0.1,0,0.2-0.1,0.3-0.1c0.2,0,0.3-0.1,0.6-0.1l0.1-0.7c0-0.1,0.1-0.2,0.2-0.3
		c0.1-0.1,0.3,0,0.4,0l1,0.7c0.3,0,0.6-0.1,0.9-0.1l-0.5-1.3c-0.1-0.2,0-0.3,0.1-0.4c0.1-0.1,0.3-0.1,0.5,0l2,1.5
		c1.2-0.1,2.2-0.1,3.5-0.2c-1.3-0.9-4.1-2.5-7.2-2.5c-4.2,0-7.7,3.6-7.7,3.7c-0.1,0.1-0.3,0.1-0.4,0.1c-0.1-0.1-0.2-0.2-0.2-0.4
		c0,0,0-1.1,1-3l-0.7-1.1c-0.1-0.1-0.1-0.3,0-0.4C24.2,7,24.4,7,24.6,7l1.1,0.3c0.5-0.8,0.9-1.5,1.7-2.4l-0.4-0.7
		c-0.1-0.1-0.1-0.3,0-0.4s0.2-0.2,0.3-0.2l1.3,0.1c0.7-0.7,1.4-1.3,2.2-1.8c-1.1-0.1-3,0.1-5.1,1.4c-2.5,1.5-3.3,5.8-2.9,8.2
		c0,0.2,0,0.3-0.2,0.4c-0.1,0.1-0.3,0.1-0.4,0c0,0-4.2-3.3-7.4-4c-2.6-0.6-5.1,0.6-6.6,1.6c0.7,0,1.6,0.1,2.8,0.2l0.8-1.1
		c0.1-0.1,0.2-0.2,0.4-0.1c0.1,0,0.3,0.1,0.3,0.3l0.2,1c0.2,0,0.4,0,0.6,0.1l0.1,0L14,9.2c0.1-0.1,0.2-0.1,0.3-0.1
		c0.1,0,0.2,0.1,0.3,0.2l0.5,0.9l0.2,0c0.2,0,0.3,0,0.5,0.1l0.8-1c0.1-0.1,0.2-0.2,0.4-0.1c0.1,0,0.2,0.1,0.3,0.3l0.3,1.2
		c1.5,0.4,2.6,0.8,4,1.6c0.2,0.1,0.2,0.3,0.2,0.5c-0.1,0.2-0.2,0.3-0.4,0.2c0,0-3.5-0.7-7.3-0.2c-3.4,0.5-5.9,2.4-6.4,4.9
		c0.8-0.4,2.3-1.1,4.2-1.8l0.3-1.4c0-0.2,0.2-0.3,0.3-0.3c0.2,0,0.3,0,0.4,0.2l0.6,1c0.2-0.1,0.4-0.1,0.5-0.2
		c0.4-0.2,0.8-0.3,1.5-0.5l0.5-1.3c0.1-0.1,0.2-0.2,0.3-0.2c0.1,0,0.3,0.1,0.3,0.2l0.5,0.8c1.2-0.3,2.4-0.4,3.9-0.5
		c0.2,0,0.4,0.1,0.4,0.3s-0.1,0.4-0.2,0.4c-0.1,0-5.6,2.3-7.4,4.7c-1.6,2.1-1.8,4.8-0.6,7.2c0.1-0.2,0.3-0.5,0.4-0.9L13,23.6
		c0-0.2,0-0.3,0.1-0.4c0.1-0.1,0.3-0.1,0.4,0l0.9,0.6c0-0.1,0.1-0.1,0.1-0.2c0.1-0.1,0.1-0.2,0.2-0.3l-0.7-1.7
		c-0.1-0.2,0-0.3,0.1-0.4c0.1-0.1,0.3-0.1,0.4,0l1.1,0.7c0.5-0.8,0.9-1.4,1.6-2.2L17,18.4c0-0.1,0-0.3,0.1-0.4s0.3-0.1,0.4,0
		l0.8,0.5c0.9-1,1.8-2.1,3.1-3.3c0.1-0.1,0.4-0.1,0.5,0c0.1,0.1,0.2,0.3,0.1,0.5c0,0-2.7,3.9-3,6.9c-0.3,2.5,0.2,4.2,1.6,5.5
		c0-0.8,0.1-2.1,0.4-3.9l-1-1C20,23.3,19.9,23.1,20,23c0.1-0.1,0.2-0.2,0.3-0.2l1,0c0.1-0.5,0.2-0.9,0.3-1.4l0.1-0.6l-0.8-1.1
		c-0.1-0.1-0.1-0.3,0-0.4c0.1-0.1,0.2-0.2,0.3-0.2c0,0,0,0,0,0l1.1,0l0.1-0.2c0.3-1,0.5-1.9,0.9-3c0.1-0.1,0.2-0.2,0.3-0.2
		c0.2,0,0.3,0.1,0.4,0.2c0,0.1,3.1,5.9,4.1,14.6C29,37.9,27.8,46.1,27.5,48z"/>
</g>
</svg>
