<?xml version="1.0" encoding="UTF-8"?>
<svg id="Capa_1" data-name="Capa 1" xmlns="http://www.w3.org/2000/svg" viewBox="0 0 50 50">
  <defs>
    <style>
      .cls-1 {
        fill: none;
      }

      .cls-2 {
        fill: #fff;
      }

      .cls-3 {
        fill: #729b39;
      }
    </style>
  </defs>
  <g>
    <g>
      <g>
        <rect class="cls-2" x="14.17" y="19.16" width="19.98" height="26.89" rx="9.08" ry="9.08" transform="translate(-.57 .43) rotate(-1.01)"/>
        <path class="cls-3" d="M23.32,46.56c-5.2,0-9.47-4.18-9.57-9.4l-.15-8.74h0c-.09-5.28,4.12-9.64,9.4-9.74l1.83-.03c2.56-.04,4.98,.91,6.82,2.68,1.84,1.78,2.88,4.16,2.92,6.72l.15,8.74c.09,5.28-4.12,9.64-9.4,9.74l-1.83,.03c-.06,0-.11,0-.17,0ZM14.59,28.41l.15,8.74c.08,4.73,4,8.51,8.73,8.43l1.83-.03c4.73-.08,8.52-4,8.43-8.73l-.15-8.74c-.04-2.29-.97-4.43-2.62-6.02-1.65-1.59-3.81-2.45-6.11-2.41l-1.83,.03c-2.29,.04-4.43,.97-6.02,2.62-1.59,1.65-2.45,3.82-2.41,6.11Z"/>
      </g>
      <g>
        <path class="cls-3" d="M19.98,37.94l-3.8,3.94c.99,1.41,2.38,2.51,4.01,3.14l3.44-3.56-3.64-3.52Z"/>
        <path class="cls-3" d="M15.62,33.74l-1.07,1.11,.04,2.14c.03,1.45,.41,2.82,1.05,4.02l3.63-3.76-3.64-3.52Z"/>
        <path class="cls-3" d="M23.32,24.35l-3.96-3.82c-1.56,.76-2.85,1.96-3.72,3.45l4.16,4.02,3.52-3.64Z"/>
        <polygon class="cls-3" points="14.51 32.67 14.52 33.46 14.91 33.06 14.51 32.67"/>
        <path class="cls-3" d="M19.12,28.7l-3.95-3.81c-.49,1.12-.76,2.36-.73,3.67l.05,2.71,1.11,1.07,3.52-3.64Z"/>
        <path class="cls-3" d="M27.53,19.99c-.86-.26-1.77-.4-2.71-.38l-1.77,.03c-.94,.02-1.85,.18-2.7,.48l3.65,3.53,3.53-3.65Z"/>
        <polygon class="cls-3" points="33.83 33.12 33.81 32.33 33.42 32.73 33.83 33.12"/>
        <path class="cls-3" d="M32.71,32.05l1.07-1.11-.05-2.71c-.02-1.3-.33-2.54-.86-3.64l-3.81,3.95,3.64,3.52Z"/>
        <path class="cls-3" d="M28.36,27.84l4.02-4.16c-.92-1.45-2.26-2.61-3.84-3.31l-3.82,3.96,3.64,3.52Z"/>
        <path class="cls-3" d="M29.22,37.08l3.76,3.63c.61-1.22,.94-2.6,.91-4.05l-.04-2.14-1.11-1.07-3.52,3.64Z"/>
        <rect class="cls-3" x="25.91" y="30.29" width="5.06" height="5.06" transform="translate(-14.92 30.49) rotate(-46.01)"/>
        <path class="cls-3" d="M21.23,45.35c.73,.18,1.49,.27,2.27,.26l1.77-.03c.78-.01,1.54-.13,2.26-.34l-3.21-3.1-3.1,3.21Z"/>
        <rect class="cls-3" x="21.71" y="34.64" width="5.06" height="5.06" transform="translate(-19.34 28.79) rotate(-46.01)"/>
        <rect class="cls-3" x="21.56" y="26.08" width="5.06" height="5.06" transform="translate(-13.23 26.07) rotate(-46.01)"/>
        <rect class="cls-3" x="17.36" y="30.44" width="5.06" height="5.06" transform="translate(-17.64 24.38) rotate(-46.01)"/>
        <path class="cls-3" d="M25.02,41.44l3.56,3.44c1.6-.69,2.96-1.84,3.9-3.28l-3.94-3.8-3.52,3.64Z"/>
        <path class="cls-3" d="M16.18,41.88c-.19-.28-.37-.57-.53-.87"/>
        <line class="cls-3" x1="14.55" y1="34.85" x2="14.52" y2="33.46"/>
        <line class="cls-3" x1="14.51" y1="32.67" x2="14.49" y2="31.27"/>
        <path class="cls-3" d="M32.97,40.71c-.15,.3-.32,.6-.5,.88"/>
        <path class="cls-3" d="M28.58,44.87c-.34,.14-.68,.27-1.04,.37"/>
        <path class="cls-3" d="M21.23,45.35c-.36-.09-.71-.2-1.05-.33"/>
      </g>
    </g>
    <g>
      <path class="cls-2" d="M23.94,43.52c0-.26,.21-.48,.47-.49h0c.26,0,.48,.21,.49,.47h0c0,.26-.21,.48-.47,.49h0c-.26,0-.48-.21-.49-.47h0Z"/>
      <path class="cls-2" d="M24.13,35.84c0-.26,.2-.47,.45-.47h0c.26,0,.47,.2,.47,.45h0c0,.26-.2,.47-.45,.47h0c-.26,0-.47-.2-.47-.45h0Z"/>
      <path class="cls-2" d="M23.99,28.24c0-.26,.2-.47,.45-.47h0c.26,0,.47,.2,.47,.45h0c0,.26-.2,.47-.45,.47h0c-.26,0-.47-.2-.47-.45h0Z"/>
      <path class="cls-2" d="M23.53,20.19c0-.26,.21-.48,.47-.49h0c.26,0,.48,.21,.49,.47h0c0,.26-.21,.48-.47,.49h0c-.26,0-.48-.21-.49-.47h0Z"/>
      <path class="cls-2" d="M19.09,23.72c0-.26,.21-.48,.47-.49h0c.26,0,.48,.21,.49,.47h0c0,.26-.21,.48-.47,.49h0c-.26,0-.48-.21-.49-.47h0Z"/>
      <path class="cls-2" d="M19.72,32.54c0-.26,.2-.47,.45-.47h0c.26,0,.47,.2,.47,.45h0c0,.26-.2,.47-.45,.47h0c-.26,0-.47-.2-.47-.45h0Z"/>
      <path class="cls-2" d="M19.39,40.74c0-.26,.21-.48,.47-.49h0c.26,0,.48,.21,.49,.47h0c0,.26-.21,.48-.47,.49h0c-.26,0-.48-.21-.49-.47h0Z"/>
      <path class="cls-2" d="M15.44,27.83c0-.26,.21-.48,.47-.49h0c.26,0,.48,.21,.49,.47h0c0,.26-.21,.48-.47,.49h0c-.26,0-.48-.21-.49-.47h0Z"/>
      <path class="cls-2" d="M15.59,36.58c0-.26,.21-.48,.47-.49h0c.26,0,.48,.21,.49,.47h0c0,.26-.21,.48-.47,.49h0c-.26,0-.48-.21-.49-.47h0Z"/>
      <path class="cls-2" d="M28.18,40.6c0-.26,.2-.47,.45-.47h0c.26,0,.47,.2,.47,.45h0c0,.26-.2,.47-.45,.47h0c-.26,0-.47-.2-.47-.45h0Z"/>
      <path class="cls-2" d="M31.96,36c0-.26,.2-.47,.45-.47h0c.26,0,.47,.2,.47,.45h0c0,.26-.2,.47-.45,.47h0c-.26,0-.47-.2-.47-.45h0Z"/>
      <path class="cls-2" d="M28.04,32.52c0-.26,.2-.47,.45-.47h0c.26,0,.47,.2,.47,.45h0c0,.26-.2,.47-.45,.47h0c-.26,0-.47-.2-.47-.45h0Z"/>
      <path class="cls-2" d="M27.9,24.43c0-.26,.2-.47,.45-.47h0c.26,0,.47,.2,.47,.45h0c0,.26-.2,.47-.45,.47h0c-.26,0-.47-.2-.47-.45h0Z"/>
      <path class="cls-2" d="M31.83,28.48c0-.26,.2-.47,.45-.47h0c.26,0,.47,.2,.47,.45h0c0,.26-.2,.47-.45,.47h0c-.26,0-.47-.2-.47-.45h0Z"/>
    </g>
    <g>
      <g>
        <path class="cls-2" d="M28.5,4.06s-8.31,7.21-2.38,8.86c5.93,1.65,2.38-8.86,2.38-8.86Z"/>
        <path class="cls-3" d="M27.28,13.59c-.39,0-.82-.06-1.29-.19-1.38-.39-2.2-1.1-2.43-2.11-.29-1.28,.42-2.96,2.1-5,1.2-1.45,2.46-2.55,2.52-2.6,.12-.11,.29-.15,.45-.1,.16,.04,.29,.16,.34,.32,.02,.07,.56,1.67,.87,3.55,.43,2.63,.2,4.45-.7,5.4-.47,.49-1.09,.74-1.86,.74Zm.98-8.64c-1.55,1.47-4.14,4.37-3.74,6.12,.15,.64,.71,1.1,1.73,1.38,1.01,.28,1.72,.19,2.17-.28,1.23-1.29,.44-5.15-.16-7.22Z"/>
      </g>
      <g>
        <path class="cls-2" d="M22.3,4.16s-4,10.25,2.02,8.95-2.02-8.95-2.02-8.95Z"/>
        <path class="cls-3" d="M23.34,13.72c-.88,0-1.57-.29-2.06-.86-.85-1-1.01-2.82-.46-5.4,.39-1.85,.99-3.41,1.02-3.47,.06-.15,.19-.27,.35-.3,.16-.04,.33,.01,.45,.12,.05,.05,1.27,1.22,2.42,2.74,1.61,2.13,2.24,3.84,1.89,5.1-.28,.99-1.13,1.65-2.53,1.95-.39,.08-.75,.13-1.08,.13Zm-.84-8.66c-.69,2.02-1.63,5.79-.46,7.16,.43,.5,1.14,.64,2.18,.41,1.03-.22,1.61-.63,1.79-1.25,.48-1.72-2.01-4.77-3.5-6.32Z"/>
      </g>
      <g>
        <path class="cls-2" d="M18.66,7.75s-2.49,10.72,3.28,8.57c5.77-2.15-3.28-8.57-3.28-8.57Z"/>
        <path class="cls-3" d="M20.55,17.1c-.65,0-1.2-.2-1.65-.6-.99-.87-1.4-2.64-1.23-5.28,.12-1.88,.5-3.51,.51-3.58,.04-.16,.15-.29,.31-.35s.33-.04,.46,.06c.06,.04,1.43,1.02,2.79,2.36,1.9,1.87,2.77,3.48,2.6,4.78-.13,1.02-.88,1.79-2.22,2.29-.57,.21-1.09,.32-1.56,.32Zm-1.57-8.49c-.39,2.1-.78,5.97,.57,7.15,.5,.44,1.22,.47,2.21,.1,.99-.37,1.51-.86,1.59-1.5,.23-1.77-2.67-4.43-4.37-5.75Z"/>
      </g>
      <g>
        <path class="cls-2" d="M30.89,7.94s.79,10.97-4.57,7.96c-5.37-3.02,4.57-7.96,4.57-7.96Z"/>
        <path class="cls-3" d="M28.01,16.92c-.59,0-1.23-.2-1.93-.59-1.25-.7-1.87-1.58-1.84-2.61,.03-1.31,1.15-2.76,3.31-4.32,1.55-1.11,3.06-1.87,3.12-1.9,.15-.07,.32-.07,.46,.01,.14,.08,.24,.23,.25,.39,0,.07,.12,1.74-.05,3.62-.24,2.63-.93,4.32-2.04,5.02-.39,.25-.82,.37-1.28,.37Zm2.43-8.18c-1.89,1.04-5.17,3.22-5.21,5-.02,.65,.42,1.21,1.34,1.73,.92,.52,1.64,.6,2.2,.25,1.51-.96,1.73-4.84,1.67-6.98Z"/>
      </g>
      <g>
        <g>
          <path class="cls-2" d="M15.92,11.64s-.41,11,4.85,7.79c5.26-3.21-4.85-7.79-4.85-7.79Z"/>
          <path class="cls-3" d="M19.03,20.51c-.43,0-.83-.11-1.2-.33-1.13-.66-1.88-2.33-2.22-4.95-.24-1.87-.18-3.54-.18-3.61,0-.16,.09-.31,.23-.4,.14-.09,.31-.1,.46-.03,.06,.03,1.6,.73,3.19,1.79,2.22,1.48,3.38,2.89,3.46,4.2,.06,1.03-.52,1.93-1.75,2.67-.72,.44-1.39,.66-2,.66Zm-2.62-8.09c.02,2.13,.37,6.01,1.92,6.91,.57,.33,1.29,.23,2.19-.33,.9-.55,1.32-1.13,1.28-1.77-.11-1.78-3.46-3.84-5.39-4.82Z"/>
        </g>
        <g>
          <path class="cls-2" d="M32.37,11.54s.79,10.97-4.57,7.96,4.57-7.96,4.57-7.96Z"/>
          <path class="cls-3" d="M29.49,20.51c-.59,0-1.23-.2-1.93-.59-1.25-.7-1.87-1.58-1.84-2.61,.03-1.31,1.15-2.76,3.31-4.32,1.55-1.11,3.06-1.87,3.12-1.9,.15-.07,.32-.07,.46,.01,.14,.08,.24,.23,.25,.39,0,.07,.12,1.74-.05,3.62-.24,2.63-.93,4.32-2.04,5.02-.39,.25-.82,.37-1.28,.37Zm2.43-8.18c-1.89,1.04-5.17,3.22-5.21,5-.02,.65,.42,1.21,1.34,1.73,.92,.52,1.64,.6,2.2,.25,1.51-.96,1.73-4.84,1.67-6.98Z"/>
        </g>
        <g>
          <path class="cls-2" d="M24.06,9.8s-5.91,9.28,.25,9.17c6.16-.11-.25-9.17-.25-9.17Z"/>
          <path class="cls-3" d="M24.2,19.47c-1.38,0-2.32-.45-2.82-1.33-.64-1.15-.44-2.96,.59-5.39,.74-1.74,1.63-3.15,1.67-3.21,.09-.14,.24-.22,.4-.23,.16,0,.32,.07,.41,.21,.04,.06,1.01,1.44,1.85,3.15,1.17,2.4,1.46,4.21,.86,5.37-.47,.92-1.43,1.4-2.86,1.42-.04,0-.08,0-.11,0Zm-.12-8.75c-1.06,1.85-2.72,5.37-1.84,6.93,.32,.58,.99,.85,2.06,.83,1.05-.02,1.7-.31,2-.88,.81-1.59-1.05-5.07-2.21-6.88Z"/>
        </g>
      </g>
    </g>
  </g>
  <rect class="cls-1" x="-.66" y="-1.01" width="51.2" height="51.26"/>
</svg>