<?xml version="1.0" encoding="UTF-8"?>
<svg id="Capa_1" data-name="Capa 1" xmlns="http://www.w3.org/2000/svg" viewBox="0 0 65 64">
  <defs>
    <style>
      .cls-1 {
        fill: #fff;
      }

      .cls-2 {
        fill: #729b39;
      }
    </style>
  </defs>
  <g id="_487_Tube_Plant_Lab_Science" data-name="487, Tube, Plant, Lab, Science">
    <g>
      <g>
        <path class="cls-1" d="M15.81,30.19c1.18,0,2.11,.93,2.11,2.11s-.93,2.11-2.11,2.11-2.11-.93-2.11-2.11,.93-2.11,2.11-2.11Z"/>
        <path class="cls-1" d="M47.9,16.54c1.43,0,2.61,1.18,2.61,2.61s-1.18,2.61-2.61,2.61-2.61-1.18-2.61-2.61,1.18-2.61,2.61-2.61Z"/>
        <path class="cls-1" d="M47.9,41.82c1.44,0,2.61,1.17,2.61,2.61s-1.17,2.61-2.61,2.61-2.61-1.17-2.61-2.61,1.17-2.61,2.61-2.61Z"/>
        <path class="cls-1" d="M38.97,30.19v20.05c0,3.45-2.86,6.32-6.32,6.32s-6.32-2.86-6.32-6.32V30.19h12.64Z"/>
        <polygon class="cls-1" points="41.08 25.98 41.08 30.19 38.97 30.19 26.34 30.19 24.23 30.19 24.23 25.98 41.08 25.98"/>
        <path class="cls-1" d="M28.95,17.98c-.84,1.1-2.36,1.43-3.62,.67-.59-.34-1.09-.93-1.26-1.52-.51-1.6,.42-2.27-1.68-3.29,1.43-.08,3.54-1.26,5.73,0,1.35,.76,1.85,2.44,1.01,3.87,0,.08-.08,.17-.17,.25Z"/>
        <path class="cls-1" d="M34.76,16.04c-.17-.17-.34-.34-.51-.51-1.43-1.77-1.26-4.46,.51-5.9,2.95-2.44,6.32-1.26,8.51-1.52-1.94,1.35-.59,5.9-3.12,7.92-1.6,1.35-3.87,1.26-5.39,0Z"/>
      </g>
      <g>
        <path class="cls-2" d="M32.65,57.57c-4.04,0-7.41-3.28-7.41-7.41V30.19c0-.59,.51-1.1,1.1-1.1s1.09,.51,1.09,1.1v20.05c0,2.86,2.36,5.31,5.31,5.31s5.31-2.36,5.31-5.31V30.19c0-.59,.51-1.1,1.1-1.1s1.09,.51,1.09,1.1v20.05c-.17,4.04-3.54,7.33-7.58,7.33Z"/>
        <path class="cls-2" d="M37.46,18.06c-1.18,0-2.44-.42-3.37-1.18-.25-.17-.42-.42-.67-.67h0c-.93-1.1-1.35-2.44-1.18-3.79,.08-1.43,.76-2.7,1.85-3.54,1.94-1.6,4.13-1.85,5.56-1.85,.59,0,1.1,0,1.6,.08,.42,0,.84,.08,1.26,.08h.67c.51-.08,.93,.25,1.1,.67,.17,.42,0,.93-.42,1.26-.51,.34-.67,1.52-.84,2.7-.25,1.68-.51,3.79-2.19,5.14-1.01,.67-2.19,1.09-3.37,1.09Zm-2.44-3.2c.08,.17,.25,.25,.42,.42,.59,.51,1.26,.76,2.02,.76s1.43-.25,2.02-.76h0c1.01-.84,1.18-2.36,1.43-3.79,.08-.76,.25-1.52,.42-2.19h-.17c-.51,0-1.01-.08-1.52-.08-1.26,0-2.78,.17-4.21,1.35-.59,.51-1.01,1.26-1.09,2.11-.17,.76,.08,1.6,.67,2.19Z"/>
        <path class="cls-2" d="M32.99,26.48c-.51,0-.93-.34-1.01-.84-.08-.51-.17-1.01-.25-1.52-.25-2.78,.51-5.73,2.11-8.59,1.77-3.12,4.04-5.14,4.13-5.22,.42-.42,1.1-.34,1.52,.08,.42,.42,.34,1.1-.08,1.52h0s-2.11,1.85-3.71,4.63c-1.43,2.53-2.02,4.97-1.85,7.33,0,.42,.08,.84,.17,1.26,.08,.59-.25,1.1-.84,1.26q-.08,.08-.17,.08Z"/>
        <path class="cls-2" d="M26.76,20.17h0c-.67,0-1.35-.17-1.94-.51-.84-.42-1.52-1.26-1.77-2.11h0c-.17-.67-.25-1.18-.25-1.52,0-.25,0-.42-.08-.51,0-.08-.17-.25-.84-.51-.42-.17-.67-.67-.59-1.18,.08-.51,.51-.84,1.01-.84,.34,0,.76-.08,1.18-.25,.76-.17,1.52-.34,2.44-.34,1.01,0,1.85,.25,2.7,.67,.93,.51,1.52,1.35,1.85,2.27,.25,1.01,.17,2.11-.42,3.03-.08,.17-.17,.25-.25,.42-.67,.76-1.85,1.35-3.03,1.35Zm-1.68-3.29c.17,.42,.42,.76,.76,.93h0c.25,.17,.59,.25,.84,.25,.51,0,1.01-.25,1.35-.67q.08-.08,.08-.17c.25-.42,.34-.93,.17-1.35-.08-.42-.42-.84-.84-1.01-.51-.25-1.01-.42-1.68-.42-.42,0-.84,.08-1.26,.17,.17,.42,.25,.84,.25,1.35,.17,.25,.17,.51,.34,.93Z"/>
        <path class="cls-2" d="M32.99,26.48c-.59,0-1.01-.42-1.01-1.01,0-.42-.08-.84-.17-1.18-.59-2.44-2.19-4.3-3.54-5.48-.67-.59-1.1-.93-1.18-.93-.51-.34-.59-1.01-.34-1.43,.34-.51,1.01-.59,1.43-.34,0,0,.59,.42,1.35,1.09,1.52,1.35,3.45,3.62,4.13,6.57,.08,.51,.17,1.01,.25,1.52,.17,.59-.34,1.1-.93,1.18h0Z"/>
        <path class="cls-2" d="M38.97,14.44c-.17,0-.25,0-.42-.08l-1.6-.67c-.51-.25-.76-.84-.59-1.35,.25-.51,.84-.76,1.35-.59l1.6,.67c.51,.25,.76,.84,.59,1.35-.17,.42-.51,.67-.93,.67Z"/>
        <path class="cls-2" d="M41.08,31.29H24.23c-.59,0-1.1-.51-1.1-1.09v-4.21c0-.59,.51-1.1,1.1-1.1h16.85c.59,0,1.1,.51,1.1,1.1v4.21c0,.59-.51,1.09-1.1,1.09Zm-15.75-2.11h14.74v-2.11h-14.74v2.11Z"/>
        <path class="cls-2" d="M30.55,51.25c-.59,0-1.1-.51-1.1-1.1v-15.75c0-.59,.51-1.1,1.1-1.1s1.09,.51,1.09,1.1v15.84c0,.51-.51,1.01-1.09,1.01Z"/>
        <path class="cls-2" d="M32.65,36.51h-2.11c-.59,0-1.1-.51-1.1-1.1s.51-1.1,1.1-1.1h2.11c.59,0,1.09,.51,1.09,1.1s-.51,1.1-1.09,1.1Z"/>
        <path class="cls-2" d="M32.65,40.72h-2.11c-.59,0-1.1-.51-1.1-1.09s.51-1.1,1.1-1.1h2.11c.59,0,1.09,.51,1.09,1.1s-.51,1.09-1.09,1.09Z"/>
        <path class="cls-2" d="M32.65,44.93h-2.11c-.59,0-1.1-.51-1.1-1.1s.51-1.09,1.1-1.09h2.11c.59,0,1.09,.5,1.09,1.09s-.51,1.1-1.09,1.1Z"/>
        <path class="cls-2" d="M32.65,49.14h-2.11c-.59,0-1.1-.51-1.1-1.1s.51-1.09,1.1-1.09h2.11c.59,0,1.09,.51,1.09,1.09s-.51,1.1-1.09,1.1Z"/>
        <path class="cls-2" d="M15.81,35.5c-1.77,0-3.2-1.43-3.2-3.2s1.43-3.2,3.2-3.2,3.2,1.43,3.2,3.2-1.43,3.2-3.2,3.2Zm0-4.21c-.59,0-1.09,.51-1.09,1.1s.51,1.09,1.09,1.09,1.1-.51,1.1-1.09c0-.67-.51-1.1-1.1-1.1Z"/>
        <path class="cls-2" d="M47.9,48.13c-2.02,0-3.71-1.68-3.71-3.71s1.68-3.71,3.71-3.71,3.71,1.68,3.71,3.71-1.68,3.71-3.71,3.71Zm0-5.31c-.84,0-1.6,.67-1.6,1.6,0,.84,.67,1.6,1.6,1.6,.84,0,1.6-.67,1.6-1.6s-.67-1.6-1.6-1.6Z"/>
        <path class="cls-2" d="M47.9,22.86c-2.02,0-3.71-1.68-3.71-3.71s1.68-3.71,3.71-3.71,3.71,1.68,3.71,3.71-1.68,3.71-3.71,3.71Zm0-5.31c-.84,0-1.6,.67-1.6,1.6,0,.84,.67,1.6,1.6,1.6,.84,0,1.6-.67,1.6-1.6s-.67-1.6-1.6-1.6Z"/>
      </g>
    </g>
  </g>
</svg>